<?xml version="1.0" standalone="no"?>
<!DOCTYPE svg PUBLIC "-//W3C//DTD SVG 1.1//EN" "http://www.w3.org/Graphics/SVG/1.1/DTD/svg11.dtd" >
<svg xmlns="http://www.w3.org/2000/svg" xmlns:xlink="http://www.w3.org/1999/xlink" version="1.1">
<metadata></metadata>
<defs>
<font id="elisardtregular" horiz-adv-x="1244" >
<font-face units-per-em="2048" ascent="1638" descent="-410" />
<missing-glyph horiz-adv-x="599" />
<glyph unicode="&#xfb03;" horiz-adv-x="1839" d="M50 915v134h144v204q0 84 25.5 154.5t68.5 119t100.5 82t121 49t130.5 15.5q197 0 371 -89l-5 -7q126 96 300 96q181 0 336 -70l-27 -146q-80 36 -145 56.5t-133 20.5q-62 0 -116.5 -17.5t-98 -52.5t-69 -92.5t-25.5 -132.5v-190h664v-1049h-163v915h-501v-915h-168v915 h-498v-915h-168v915h-144zM362 1049h498v204q0 124 55 221q-126 60 -245 60q-62 0 -116.5 -17.5t-98 -52.5t-68.5 -92.5t-25 -132.5v-190z" />
<glyph unicode="&#xfb04;" horiz-adv-x="1839" d="M50 915v134h144v204q0 84 25.5 154.5t68.5 119t100.5 82t121 49t130.5 15.5q197 0 371 -89q55 43 120.5 66t130.5 23q136 0 265 -31h169v-1642h-169v1498q-127 36 -240 36q-65 0 -123.5 -32.5t-97 -95.5t-38.5 -141v-216h319v-134h-319v-915h-168v915h-498v-915h-168v915 h-144zM362 1049h498v229q0 111 53 196q-126 60 -243 60q-62 0 -116.5 -17.5t-98 -52.5t-68.5 -92.5t-25 -132.5v-190z" />
<glyph horiz-adv-x="0" />
<glyph horiz-adv-x="682" />
<glyph unicode=" "  horiz-adv-x="599" />
<glyph unicode="&#x09;" horiz-adv-x="599" />
<glyph unicode="&#xa0;" horiz-adv-x="599" />
<glyph unicode="!" horiz-adv-x="531" d="M142 112q0 47 35.5 84t83.5 37q51 0 88 -36.5t37 -84.5q0 -51 -36.5 -87.5t-88.5 -36.5q-49 0 -84 36.5t-35 87.5zM170 1131v419h192v-479q-3 -49 -7.5 -109.5t-9.5 -117t-11.5 -119t-11.5 -111.5t-10 -98.5t-8 -76.5h-76q-3 38 -17 193.5t-25.5 291.5t-15.5 207z" />
<glyph unicode="&#x22;" horiz-adv-x="749" d="M137 1553h158l-34 -412h-91zM453 1553h158l-33 -412h-91z" />
<glyph unicode="#" d="M46 477v136h237l69 389h-278v136h303l92 506l135 -19l-92 -487h341l91 506l135 -19l-89 -487h208v-136h-237l-67 -389h277v-136h-304l-92 -506l-135 20l89 486h-338l-91 -506l-133 20l87 486h-208zM419 613h338l70 389h-340z" />
<glyph unicode="$" d="M160 80l27 165q77 -50 181 -86.5t204 -36.5q95 0 171.5 34.5t120.5 98.5t44 145q0 55 -19.5 102t-44 77t-75.5 63.5t-84.5 50t-99.5 47.5q-54 25 -82.5 39t-77.5 42t-75.5 50.5t-61.5 59t-52.5 74.5t-30.5 89.5t-13 110.5q0 94 47 174t125 131t173 67v189h163v-182 q170 -8 318 -86l-26 -151q-92 43 -177 67t-182 24q-109 0 -186.5 -67t-77.5 -159q0 -64 24.5 -115.5t66 -87t95 -65.5t113 -56.5t119 -55t113.5 -66t95.5 -83.5t66 -114t24.5 -152q0 -170 -103.5 -287.5t-282.5 -148.5v-196h-163v186q-173 5 -377 109z" />
<glyph unicode="%" horiz-adv-x="1506" d="M50 1159q0 182 91 293.5t228 111.5q52 0 98 -16.5t80.5 -46t62.5 -68t45 -83.5t26 -92t9 -94q0 -93 -26 -171.5t-70 -130t-103 -79.5t-125 -28q-137 0 -226.5 113.5t-89.5 290.5zM163 16l1058 1599l101 -62l-1059 -1599zM176 1162q0 -47 8.5 -91t25 -80.5t40 -63.5 t54.5 -42.5t67 -15.5q59 0 104 40.5t67.5 106.5t22.5 146q0 122 -54 206t-142 84q-35 0 -66 -15.5t-54 -42.5t-40 -63.5t-25 -79.5t-8 -89zM819 371q0 90 25 167t68 129t101.5 81t124.5 29q63 0 116.5 -24t90 -63.5t62.5 -92t38 -108.5t12 -112q0 -94 -25.5 -172t-69.5 -130 t-102 -80.5t-124 -28.5q-137 0 -227 114.5t-90 290.5zM944 373q0 -79 23.5 -145t68 -106t102.5 -40q59 0 104 40t68 105.5t23 145.5q0 125 -53 209t-142 84q-44 0 -81 -24t-61.5 -65t-38 -93.5t-13.5 -110.5z" />
<glyph unicode="&#x26;" horiz-adv-x="1592" d="M69 402q0 68 20.5 129t52 107.5t81.5 92.5t97 79t112 72q-30 35 -51.5 61t-50.5 67t-47.5 75.5t-31.5 75.5t-13 78q0 98 47.5 177t131.5 123.5t187 44.5q74 0 143 -23.5t122.5 -65.5t85.5 -105.5t32 -138.5q0 -227 -319 -398q38 -40 180.5 -185.5t222.5 -228.5 q115 160 242 443l148 -52q-129 -304 -286 -507q180 -164 354 -263l-144 -94q-174 106 -321 240q-233 -245 -508 -245q-97 0 -187 35.5t-155.5 94.5t-105 140.5t-39.5 170.5zM249 434q0 -139 93.5 -229t237.5 -90q190 0 381 203q-172 181 -429 446q-47 -31 -75.5 -51.5 t-65.5 -49t-59 -52.5t-43 -53t-30.5 -60t-9.5 -64zM398 1246q0 -100 174 -292q62 35 104.5 64.5t80.5 65.5t56.5 77t18.5 87q0 43 -17 80.5t-45.5 64.5t-68 43t-83.5 16q-95 0 -157.5 -59.5t-62.5 -146.5z" />
<glyph unicode="'" horiz-adv-x="396" d="M119 1553h159l-33 -412h-94z" />
<glyph unicode="(" horiz-adv-x="675" d="M98 551q0 635 345 1091l144 -46q-73 -103 -128.5 -211t-98.5 -236.5t-65 -279.5t-22 -320q0 -583 299 -1024l-140 -47q-57 75 -105 157.5t-91 185.5t-73 214t-47.5 243.5t-17.5 272.5z" />
<glyph unicode=")" horiz-adv-x="675" d="M87 1596q98 -139 165 -286t107.5 -342.5t40.5 -418.5q0 -312 -78.5 -562.5t-218.5 -461.5l142 -47q71 94 129 203t105 242t73 293.5t26 334.5q0 635 -345 1091z" />
<glyph unicode="*" horiz-adv-x="1006" d="M77 1230l45 128l331 -126l-19 355h138l-19 -355l334 126l43 -128l-347 -94l229 -278l-115 -83l-196 299l-192 -299l-115 83l230 278z" />
<glyph unicode="+" d="M132 537v146h417v429h146v-429h417v-146h-417v-429h-146v429h-417z" />
<glyph unicode="," horiz-adv-x="533" d="M135 115q0 29 14.5 55.5t42.5 44.5t62 18q50 0 86.5 -35.5t36.5 -89.5q0 -37 -13.5 -73.5t-42.5 -91.5l-113 -216l-73 31l50 118q16 42 16 81q0 19 -10.5 37.5t-23 31t-22.5 36.5t-10 53z" />
<glyph unicode="-" horiz-adv-x="746" d="M60 489v149h626v-149h-626z" />
<glyph unicode="." horiz-adv-x="533" d="M144 112q0 47 35.5 84t83.5 37q25 0 48.5 -10t40.5 -27t26.5 -39t9.5 -45q0 -34 -16.5 -62.5t-45.5 -45t-63 -16.5q-48 0 -83.5 36.5t-35.5 87.5z" />
<glyph unicode="/" horiz-adv-x="876" d="M0 -180l738 1845l140 -48l-736 -1845z" />
<glyph unicode="0" d="M89 777q0 241 64.5 424t184.5 283t280 100q167 0 289 -100t186 -282t64 -425q0 -178 -36 -327t-103.5 -256.5t-169.5 -167.5t-228 -60q-89 0 -165.5 28.5t-134 81t-102 125.5t-73 163.5t-42.5 194t-14 218.5zM270 777q0 -206 37 -351.5t115.5 -227t195.5 -81.5 q114 0 195.5 83.5t122 231t40.5 345.5t-41 345.5t-122 229t-193 81.5q-172 0 -261 -172t-89 -484z" />
<glyph unicode="1" d="M318 0v144h308v1184l-308 -164v178l363 211h115v-1409h299v-144h-777z" />
<glyph unicode="2" d="M172 1436q79 65 191.5 105.5t244.5 40.5q127 0 232 -53t168 -151t63 -221q0 -46 -15 -100t-35 -101.5t-55.5 -107t-63 -101t-71.5 -99t-67 -85.5t-63 -76q-14 -17 -20 -25q-154 -182 -274 -316h700v-146h-931v105q58 67 343 403q38 45 66.5 79.5t69.5 88t71.5 97t64 96.5 t54.5 96.5t35 88.5t14 80q0 128 -86.5 213.5t-217.5 85.5q-114 0 -206.5 -45.5t-184.5 -127.5z" />
<glyph unicode="3" d="M124 91l68 142q59 -50 146.5 -82t193.5 -32q85 0 156.5 26.5t119.5 72t75 106.5t27 129q0 51 -15.5 97.5t-50.5 89t-87 74t-130 50t-174 18.5h-53v146h53q94 0 171.5 25.5t125.5 67t74.5 92.5t26.5 104q0 43 -19.5 82.5t-56 70t-93.5 48.5t-126 18q-99 0 -173 -21 t-161 -61l-39 144q194 86 382 86q111 0 200 -30t144.5 -80.5t84.5 -113.5t29 -133q0 -61 -22 -121t-61.5 -110t-102 -85.5t-137.5 -45.5q97 -12 174.5 -51t126 -96t74 -126t25.5 -144q0 -71 -22 -139.5t-68 -130t-110.5 -107.5t-156.5 -73t-199 -27q-117 0 -239.5 35 t-180.5 85z" />
<glyph unicode="4" d="M82 395v101l752 1059h156v-1018h185v-142h-185v-395h-176v395h-732zM292 537h522v738z" />
<glyph unicode="5" d="M130 91l67 137q145 -109 349 -109q42 0 82 7.5t78 23t71 38t61 54t48 69.5t31 86.5t11 103.5q0 107 -51 187t-139 121.5t-201 41.5q-41 0 -78 -3.5t-68 -9t-50.5 -10.5t-44 -12t-30.5 -9l103 746h717l-29 -144h-547l-62 -437q82 15 170 15q93 0 182 -34t158 -95 t111.5 -152.5t42.5 -197.5q0 -95 -27.5 -180t-78 -150.5t-118.5 -113.5t-152 -73t-176 -25q-127 0 -237.5 34t-192.5 91z" />
<glyph unicode="6" d="M110 563q0 134 37.5 265t102 240.5t152.5 208.5t186.5 175t207.5 135l121 -99q-91 -57 -161 -109t-141 -117t-127 -140t-95 -159q119 63 252 63q108 0 201 -42t156.5 -113.5t99.5 -169t36 -207.5q0 -73 -16.5 -141t-48 -126t-77.5 -105.5t-102 -81t-124.5 -51.5 t-143.5 -18q-94 0 -177 32t-144.5 88.5t-105.5 131.5t-66.5 161.5t-22.5 178.5zM285 542q0 -80 25 -155.5t69 -135t110.5 -96t143.5 -36.5q97 0 172.5 51t115.5 134.5t40 182.5q0 75 -25 146.5t-68 126.5t-106.5 88.5t-135.5 33.5q-169 0 -308 -107q-33 -79 -33 -233z" />
<glyph unicode="7" d="M192 1395v158h958v-122l-707 -1450l-170 53l669 1356q0 2 -2 5h-748z" />
<glyph unicode="8" d="M128 398q0 78 27.5 149t77.5 127t108 99t128 80q-56 34 -98.5 66t-84 75.5t-63.5 95.5t-22 110q0 40 9 79.5t27.5 77t44 71.5t61.5 62.5t78.5 49.5t95.5 32.5t111 11.5q74 0 137 -17t107.5 -46t79 -65.5t55 -78.5t30.5 -82t10 -78q0 -203 -263 -357q38 -21 70.5 -41 t67.5 -46t62.5 -53t53 -61.5t42 -71t26.5 -81t10 -92.5q0 -81 -26 -152.5t-72 -124t-108.5 -90.5t-136 -57t-153.5 -19q-139 0 -251.5 53t-176.5 151t-64 223zM309 417q0 -91 39.5 -160t110 -105.5t161.5 -36.5q140 0 228.5 79.5t88.5 215.5q0 57 -18 106.5t-46.5 86 t-72.5 70t-87.5 56.5t-99.5 48q-64 -28 -116.5 -63t-96 -79t-67.5 -100t-24 -118zM373 1203q0 -48 16 -87t49.5 -72.5t81.5 -61.5t115 -54q29 15 46.5 25t46.5 28t46.5 33t39.5 37t34 43.5t21 49t9 56.5q0 103 -66.5 171.5t-185.5 68.5q-117 0 -185 -69.5t-68 -167.5z" />
<glyph unicode="9" d="M110 1061q0 88 24 167.5t69 144t107 112t142.5 73.5t169.5 26q95 0 178 -32t144 -88.5t105.5 -131.5t66.5 -161.5t22 -178.5q0 -135 -37.5 -266t-102 -240.5t-152.5 -208.5t-186.5 -175.5t-206.5 -135.5l-122 101q91 57 161.5 109t141.5 116.5t126.5 139t94.5 158.5 q-118 -62 -251 -62q-108 0 -201 42t-157 114t-100 169.5t-36 207.5zM288 1068q0 -60 15.5 -118t45 -108t70 -88t93 -59.5t110.5 -21.5q168 0 308 109q33 78 33 231q0 79 -25 155t-68.5 135.5t-110 96t-144.5 36.5q-96 0 -172 -51t-115.5 -134.5t-39.5 -182.5z" />
<glyph unicode=":" horiz-adv-x="533" d="M144 112q0 47 35.5 84t83.5 37q25 0 48.5 -10t40.5 -27t26.5 -39t9.5 -45q0 -34 -16.5 -62.5t-45.5 -45t-63 -16.5q-48 0 -83.5 36.5t-35.5 87.5zM144 875q0 23 9.5 45t25.5 38.5t38.5 26t45.5 9.5q51 0 88 -36t37 -83q0 -52 -36.5 -88.5t-88.5 -36.5q-48 0 -83.5 37 t-35.5 88z" />
<glyph unicode=";" horiz-adv-x="533" d="M135 115q0 29 14.5 55.5t42.5 44.5t62 18q50 0 86.5 -35.5t36.5 -89.5q0 -37 -13.5 -73.5t-42.5 -91.5l-113 -216l-73 31l50 118q16 42 16 81q0 19 -10.5 37.5t-23 31t-22.5 36.5t-10 53zM144 875q0 23 9.5 45t25.5 38.5t38.5 26t45.5 9.5q51 0 88 -36t37 -83 q0 -52 -36.5 -88.5t-88.5 -36.5q-48 0 -83.5 37t-35.5 88z" />
<glyph unicode="&#x3c;" d="M132 585v103l917 517l63 -126l-781 -441v-3l781 -441l-63 -127z" />
<glyph unicode="=" d="M132 333v149h980v-149h-980zM132 762v148h980v-148h-980z" />
<glyph unicode="&#x3e;" d="M132 194l781 441v3l-781 441l62 126l918 -517v-103l-918 -518z" />
<glyph unicode="?" horiz-adv-x="983" d="M101 1443q217 141 400 141q190 0 305.5 -107.5t115.5 -283.5q0 -57 -17.5 -107.5t-46 -88.5t-63.5 -72.5t-72.5 -67t-70 -64t-58.5 -71t-36 -82.5q-36 -119 -36 -223h-153q0 49 1.5 77.5t5.5 75t11 78t20 67.5t32 62q24 35 66.5 77t81 77.5t75.5 75t59 84.5t22 91 q0 115 -72 189t-194 74q-40 0 -84.5 -12t-88.5 -34.5t-71.5 -39t-62.5 -39.5zM316 112q0 47 36.5 84t83.5 37q51 0 87.5 -36.5t36.5 -84.5q0 -34 -16.5 -62.5t-45 -45t-62.5 -16.5q-48 0 -84 36.5t-36 87.5z" />
<glyph unicode="@" horiz-adv-x="1818" d="M62 583q0 130 34 258.5t94.5 241t148.5 209t192.5 166t230.5 108.5t258 39q160 0 298 -60t232.5 -163t147.5 -242.5t53 -295.5q0 -99 -20 -191t-54.5 -165t-82 -134t-101.5 -101.5t-112.5 -63t-115.5 -22.5q-47 0 -90 14t-77.5 39.5t-51.5 68t-11 95.5q-20 -38 -97 -87.5 t-140 -49.5q-66 0 -120 31t-89.5 82.5t-54.5 118t-19 139.5q0 104 32.5 201t90 171.5t143.5 119.5t187 45q40 0 86 -9.5t104 -26.5t79 -22l-71 -699q-5 -65 23.5 -105.5t79.5 -40.5q59 0 110.5 25.5t89 69.5t67.5 101t48.5 121t28 127t9.5 123q0 109 -23.5 207t-72 183 t-119 146.5t-171 97t-220.5 35.5q-125 0 -238 -37t-201.5 -101.5t-160.5 -152t-119 -188.5t-72.5 -210.5t-25.5 -218.5q0 -106 25.5 -204t78 -182t127 -146t179 -97t228.5 -35q77 0 149.5 13.5t112 28t92.5 37.5l50 -98q-198 -98 -414 -98q-165 0 -308 61.5t-243 166.5 t-157 249.5t-57 306.5zM645 628q0 -63 19 -121.5t60 -99.5t95 -41q67 0 134.5 52.5t103.5 109.5l45 471q-66 43 -160 43q-63 0 -119 -33.5t-94.5 -90.5t-61 -132.5t-22.5 -157.5z" />
<glyph unicode="A" horiz-adv-x="1345" d="M16 2l567 1551h188l555 -1548l-188 -14l-158 462h-616l-165 -462zM412 601h518l-223 633q-15 47 -31 110h-6q-8 -34 -32 -110z" />
<glyph unicode="B" horiz-adv-x="1264" d="M190 0v1553h480q122 0 221 -50.5t155 -140t56 -200.5q0 -63 -16.5 -117.5t-45.5 -94.5t-60 -68t-67 -50q50 -17 98.5 -51t90 -82t66.5 -114.5t25 -138.5q0 -82 -24 -153t-68 -124.5t-103.5 -91.5t-132 -57.5t-151.5 -19.5h-524zM371 144h319q88 0 159.5 34t116.5 104.5 t45 165.5q0 66 -27 123t-71 94.5t-99 58.5t-112 21h-331v-601zM371 880h295q112 0 185.5 76t73.5 189q0 68 -24.5 119.5t-68 82t-98.5 45t-121 14.5h-242v-526z" />
<glyph unicode="C" horiz-adv-x="1336" d="M108 784q0 173 54.5 322t151.5 254.5t235.5 166t301.5 60.5q111 0 224 -33t190 -83l-21 -168q-200 126 -382 126q-116 0 -219 -44t-181 -124.5t-124 -203t-46 -271.5q0 -126 26.5 -232.5t74.5 -184t116 -132t151 -81t179 -26.5q122 0 216.5 33t211.5 98l20 -165 q-83 -55 -208.5 -92.5t-257.5 -37.5q-155 0 -286 56t-226 159.5t-148 258t-53 344.5z" />
<glyph unicode="D" horiz-adv-x="1497" d="M190 0v1553h498q107 0 202.5 -27.5t172.5 -77t138.5 -119.5t103 -155t63.5 -184t22 -206q0 -176 -53 -323.5t-146 -248t-222.5 -156.5t-280.5 -56h-498zM371 149h288q115 0 213 41t171.5 119.5t115 200t41.5 274.5q0 128 -39 242t-108 197.5t-169.5 132t-217.5 48.5h-295 v-1255z" />
<glyph unicode="E" horiz-adv-x="1187" d="M190 0v1553h874v-144h-693v-527h597v-144h-597v-592h743v-146h-924z" />
<glyph unicode="F" horiz-adv-x="1077" d="M190 0v1553h857v-144h-676v-534h578v-146h-578v-729h-181z" />
<glyph unicode="G" horiz-adv-x="1470" d="M108 782q0 170 56 318.5t156 255.5t245 169t315 62q109 0 225 -30t194 -73l-24 -158q-206 110 -390 110q-122 0 -229.5 -45.5t-188 -128t-128 -206.5t-47.5 -272q0 -157 42 -284t116.5 -210.5t178 -128t226.5 -44.5q40 0 74 2.5t66 7.5t62 13.5t60.5 20.5t61.5 29v409 h-235v172h403v-684q-92 -52 -231 -86.5t-263 -34.5q-165 0 -303.5 58t-236 163.5t-151.5 258t-54 336.5z" />
<glyph unicode="H" horiz-adv-x="1530" d="M190 0v1553h181v-640h788v640h178v-1553h-178v757h-788v-757h-181z" />
<glyph unicode="I" horiz-adv-x="562" d="M190 0v1553h181v-1553h-181z" />
<glyph unicode="J" horiz-adv-x="741" d="M-41 14l32 166q39 -30 67.5 -40t80.5 -10q130 0 191 79t61 220v1124h179v-1129q0 -72 -15 -137t-48 -123t-80 -101t-115.5 -67.5t-151.5 -24.5q-75 0 -120 10t-81 33z" />
<glyph unicode="K" horiz-adv-x="1288" d="M190 0v1553h181v-661l640 672l187 -35l-663 -690l704 -825l-197 -33l-671 796v-777h-181z" />
<glyph unicode="L" horiz-adv-x="1072" d="M190 0v1553h181v-1407h688v-146h-869z" />
<glyph unicode="M" horiz-adv-x="1827" d="M165 2l57 1551h190l418 -791q43 -79 85 -182h2q37 98 80 182l423 791h192l51 -1551l-179 -4l-32 1143q-5 100 -5 146l-469 -935h-125l-482 906q2 -55 2 -117l-33 -1143z" />
<glyph unicode="N" horiz-adv-x="1623" d="M190 0v1553h174l894 -1268q-3 62 -3 170v1098h178v-1553h-175l-896 1272q2 -46 2 -141v-1131h-174z" />
<glyph unicode="O" horiz-adv-x="1612" d="M108 777q0 173 52 324t143.5 258.5t221.5 169.5t280 62q129 0 241 -41.5t195.5 -116.5t143 -176.5t90 -224t30.5 -255.5q0 -173 -53 -323.5t-145 -257.5t-222 -168.5t-280 -61.5q-129 0 -240.5 41.5t-194.5 116t-142.5 175.5t-89.5 222.5t-30 255.5zM295 793 q0 -103 20 -199.5t62 -181t102 -147t145 -99t186 -36.5q94 0 176 33.5t142 93t103 139t64.5 172.5t21.5 194q0 102 -20 199t-62.5 183t-102.5 150t-145.5 101.5t-186.5 37.5q-79 0 -149.5 -24t-125 -67.5t-98.5 -103t-73 -131t-44 -151t-15 -163.5z" />
<glyph unicode="P" horiz-adv-x="1185" d="M190 0v1553h445q148 0 263 -57t177.5 -160.5t62.5 -235.5q0 -105 -38 -195t-105 -153.5t-161 -100t-203 -36.5h-260v-615h-181zM371 762h237q155 0 250.5 92t95.5 241q0 144 -91.5 229t-244.5 85h-247v-647z" />
<glyph unicode="Q" horiz-adv-x="1612" d="M108 777q0 173 52 324t143.5 258.5t221.5 169.5t280 62q129 0 241 -41.5t195.5 -116.5t143 -176.5t90 -224t30.5 -255.5q0 -177 -55 -330.5t-154.5 -264t-231.5 -166.5q92 -179 203 -179q56 0 99.5 31t90.5 86l98 -96q-151 -165 -302 -165q-57 0 -111.5 24.5t-97.5 65.5 t-77.5 90t-58.5 104q-82 -11 -103 -11q-129 0 -240.5 41.5t-194.5 116t-142.5 175.5t-89.5 222.5t-30 255.5zM295 793q0 -103 20 -199.5t62 -181t102 -147t145 -99t186 -36.5q94 0 176 33.5t142 93t103 139t64.5 172.5t21.5 194q0 102 -20 199t-62.5 183t-102.5 150 t-145.5 101.5t-186.5 37.5q-79 0 -149.5 -24t-125 -67.5t-98.5 -103t-73 -131t-44 -151t-15 -163.5z" />
<glyph unicode="R" horiz-adv-x="1281" d="M190 0v1553h473q108 0 199 -35t152.5 -95t96 -142.5t34.5 -176.5q0 -78 -25.5 -149t-69 -124.5t-99 -92t-117.5 -57.5l407 -674l-199 -19l-390 664q-37 -3 -108 -3h-173v-649h-181zM369 793h228q61 0 113.5 10t99.5 33t80.5 58t53 87.5t19.5 118.5q0 82 -27.5 143 t-78 96.5t-113.5 52.5t-140 17h-235v-616z" />
<glyph unicode="S" horiz-adv-x="1111" d="M101 80l27 165q77 -50 181 -86.5t203 -36.5q146 0 241 77.5t95 200.5q0 55 -19.5 102t-44 77t-75.5 63.5t-84 50t-99 47.5q-48 22 -72.5 34t-68.5 35.5t-68 42.5t-58.5 47.5t-53 58.5t-37.5 67.5t-27.5 82.5t-8.5 97q0 85 38 158t100.5 121.5t142 75.5t163.5 27 q122 0 210.5 -24t171.5 -65l-26 -151q-91 42 -177 66.5t-183 24.5q-109 0 -186 -67t-77 -159q0 -64 24.5 -115.5t66 -87t95.5 -65.5t113 -56.5t118.5 -55t113.5 -66t95.5 -83.5t66 -114t24.5 -152q0 -77 -22.5 -145.5t-66 -124t-104 -96.5t-141 -63t-173.5 -22 q-82 0 -172.5 21.5t-145 44.5t-100.5 48z" />
<glyph unicode="T" horiz-adv-x="1187" d="M0 1399v154h1179v-154h-503v-1399h-178v1399h-498z" />
<glyph unicode="U" horiz-adv-x="1513" d="M158 587v966h180v-983q0 -96 30 -178t84.5 -141.5t134 -93t175.5 -33.5q186 0 303 124t117 322v983h176v-966q0 -141 -46.5 -259t-127.5 -196.5t-190.5 -122t-234.5 -43.5q-130 0 -241 44t-190.5 124t-124.5 196.5t-45 256.5z" />
<glyph unicode="V" horiz-adv-x="1377" d="M12 1546l187 16l427 -1164q52 -149 62 -178h2q12 37 35 97.5t30 80.5l429 1164l181 -16l-606 -1546h-169z" />
<glyph unicode="W" horiz-adv-x="2093" d="M23 1550l190 14l309 -1154q19 -69 41 -182h4q9 35 28 99.5t23 79.5l340 1146h166l330 -1146q19 -58 46 -179h5q10 46 48 182l335 1154l179 -11l-471 -1553h-204l-313 1114q-20 76 -39 166h-5q-30 -114 -45 -166l-331 -1114h-204z" />
<glyph unicode="X" horiz-adv-x="1356" d="M23 12l562 786l-508 741l201 30l417 -620l432 618l179 -31l-515 -729l539 -793l-201 -28l-448 670l-470 -670z" />
<glyph unicode="Y" horiz-adv-x="1308" d="M16 1543l204 19l436 -762h3l445 764l185 -21l-548 -910v-633h-181v633z" />
<glyph unicode="Z" horiz-adv-x="1230" d="M57 0v139l885 1260h-830v154h1054v-137l-888 -1258h877v-158h-1098z" />
<glyph unicode="[" horiz-adv-x="744" d="M187 -522v2161h520v-130h-357v-1904h357v-127h-520z" />
<glyph unicode="\" horiz-adv-x="833" d="M-12 1639l156 55l704 -1857l-158 -52z" />
<glyph unicode="]" horiz-adv-x="744" d="M39 -395h356v1904h-356v130h519v-2161h-519v127z" />
<glyph unicode="^" d="M132 647l421 940h135l424 -938l-140 -18l-350 812h-2l-352 -815z" />
<glyph unicode="_" d="M0 -187h1246v-113h-1246v113z" />
<glyph unicode="`" horiz-adv-x="828" d="M163 1562l160 41l244 -338l-87 -28z" />
<glyph unicode="a" horiz-adv-x="1054" d="M84 283q0 60 21.5 111t56.5 86t84.5 62.5t99.5 43.5t107 27q171 27 292 34v89q0 66 -22 111.5t-66 69t-108 23.5q-142 0 -369 -89l10 148q79 32 178.5 56t196.5 24q85 0 152 -27t109.5 -74t64.5 -108t22 -132v-738h-165v119h-3q-47 -33 -81.5 -54t-83 -44.5t-99 -35.5 t-102.5 -12q-79 0 -145.5 37t-108 108.5t-41.5 164.5zM247 290q0 -55 22 -96t61.5 -62.5t90.5 -21.5q150 0 324 139v273q-153 -11 -226 -21q-42 -6 -80.5 -16.5t-74 -28.5t-61 -41t-41 -55t-15.5 -70z" />
<glyph unicode="b" horiz-adv-x="1185" d="M144 112v1530h167v-662h3q175 99 331 99q93 0 177.5 -42.5t145 -113t96.5 -167t36 -200.5q0 -126 -40 -233.5t-109.5 -181.5t-164.5 -115.5t-203 -41.5q-111 0 -217 31.5t-222 96.5zM311 206q148 -78 265 -78q73 0 139 32.5t113 87.5t74.5 132t27.5 162q0 104 -38.5 193 t-111.5 143t-165 54q-71 0 -153.5 -28.5t-150.5 -69.5v-628z" />
<glyph unicode="c" horiz-adv-x="995" d="M84 515q0 159 66 288t184 203.5t265 74.5q174 0 316 -84l-26 -153q-78 44 -141.5 67.5t-139.5 23.5q-102 0 -183 -53t-126 -147.5t-45 -212.5q0 -66 17 -126t49.5 -109.5t76.5 -86t101.5 -56.5t121.5 -20q87 0 150 23t145 73l22 -156q-154 -93 -331 -93q-90 0 -171.5 28 t-144.5 78.5t-110 118t-71.5 149.5t-24.5 170z" />
<glyph unicode="d" horiz-adv-x="1194" d="M74 519q0 91 24.5 176t71 154t109 121t142.5 80.5t166 28.5q146 0 285 -85h3v648h167v-1642h-162v91h-2q-156 -112 -318 -112q-102 0 -192 41t-154.5 112t-102 172t-37.5 215zM245 525q0 -112 40 -202.5t118 -144.5t182 -54q78 0 146 31t144 87v606q-155 87 -276 87 q-104 0 -185.5 -54.5t-125 -147.5t-43.5 -208z" />
<glyph unicode="e" horiz-adv-x="1125" d="M84 515q0 158 62.5 287t173 203t247.5 74q199 0 332 -142.5t158 -399.5l-801 -73q15 -152 112 -252t243 -100q185 0 374 137l60 -127q-28 -22 -69.5 -45t-99.5 -48t-132.5 -40.5t-149.5 -15.5q-109 0 -204.5 43.5t-162 117.5t-105 173t-38.5 208zM259 606l610 57 q-30 126 -107.5 205t-191.5 79q-127 0 -212 -95.5t-99 -245.5z" />
<glyph unicode="f" horiz-adv-x="713" d="M50 915v134h144v266q0 72 21.5 132t57.5 101t83 70t97.5 42t102.5 13q119 0 261 -63l-19 -144q-32 16 -50.5 24.5t-49 20.5t-60 17.5t-60.5 5.5q-44 0 -82.5 -13.5t-69 -40.5t-47.5 -72.5t-17 -104.5v-254h319v-134h-319v-915h-168v915h-144z" />
<glyph unicode="g" horiz-adv-x="1194" d="M74 519q0 91 24.5 176t71 154t109 121t142.5 80.5t166 28.5q130 0 231 -27t224 -101v-1047q0 -34 -4.5 -68.5t-15 -73.5t-30 -74.5t-46 -70.5t-66 -63t-87.5 -50t-113 -34t-141 -12q-65 0 -134 13.5t-124.5 34t-94.5 39t-64 34.5l50 133q164 -107 350 -107q50 0 93.5 6 t76.5 16t60 25.5t45.5 32.5t32.5 38t22.5 41.5t14 43.5t7 43t1.5 41v199h-3q-156 -112 -312 -112q-102 0 -192 41t-154.5 112t-102 172t-37.5 215zM245 525q0 -112 40 -202.5t118 -144.5t182 -54q78 0 146 31t144 87v633q-102 60 -271 60q-107 0 -189.5 -54.5t-126 -147.5 t-43.5 -208z" />
<glyph unicode="h" horiz-adv-x="1194" d="M139 0v1642h161v-755h2q31 23 41.5 30.5t45 31.5t54.5 35t55.5 29.5t63 27t62 16t66.5 7.5q148 0 233.5 -92.5t85.5 -262.5v-709h-161v681q0 122 -49.5 178t-151.5 56q-130 0 -347 -172v-743h-161z" />
<glyph unicode="i" horiz-adv-x="457" d="M128 1399q0 40 29.5 70.5t70.5 30.5q42 0 71.5 -30t29.5 -71t-29 -70.5t-72 -29.5q-41 0 -70.5 29.5t-29.5 70.5zM146 0v1049h165v-1049h-165z" />
<glyph unicode="j" horiz-adv-x="457" d="M-215 -491l11 146q103 -53 181 -53q31 0 59 10t54 32t41 63t15 96v1246h168v-1253q0 -82 -27.5 -148.5t-72 -106.5t-97.5 -61.5t-108 -21.5q-119 0 -224 51zM128 1399q0 40 29.5 70.5t70.5 30.5q42 0 71.5 -30t29.5 -71t-29 -70.5t-72 -29.5q-41 0 -70.5 29.5t-29.5 70.5 z" />
<glyph unicode="k" horiz-adv-x="1034" d="M144 0v1642h167v-1036l471 460l181 -35l-455 -437l505 -580l-181 -28l-432 498h-89v-484h-167z" />
<glyph unicode="l" horiz-adv-x="457" d="M144 0v1642h170v-1642h-170z" />
<glyph unicode="m" horiz-adv-x="1852" d="M144 0v1049h165v-153h2q6 5 27.5 22.5t33 26.5t34.5 26.5t39.5 27.5t41 25t46 23.5t46.5 17t50.5 12.5t51.5 4q109 0 186.5 -50t112.5 -146q48 40 87.5 69t92.5 61t108 49t108 17q152 0 240 -97t88 -270v-714h-168v683q0 128 -49 186.5t-157 58.5q-39 0 -82 -15t-89 -45 t-73 -50.5t-71 -55.5q-7 -7 -11 -10q5 -28 5 -57v-695h-170v683q0 127 -50 186t-156 59q-32 0 -70.5 -13.5t-67 -29t-70 -45.5t-59.5 -44.5t-55 -45.5v-750h-167z" />
<glyph unicode="n" horiz-adv-x="1194" d="M144 0v1049h165v-155h2q32 24 43 32t47.5 33.5t57 37t58 31t66.5 29t65.5 17t69.5 7.5q154 0 242.5 -96t88.5 -274v-711h-167v683q0 128 -51.5 186.5t-157.5 58.5q-136 0 -362 -180v-748h-167z" />
<glyph unicode="o" horiz-adv-x="1200" d="M84 522q0 112 40 214.5t107.5 178.5t164 121t203.5 45t203.5 -45t165 -120.5t108.5 -177t40 -210.5q0 -111 -40 -213t-108.5 -177t-165 -120t-203.5 -45q-87 0 -166.5 28t-142.5 78.5t-109.5 118.5t-71.5 151t-25 173zM256 525q0 -56 12.5 -109t34.5 -98t53.5 -82.5 t69.5 -63.5t83.5 -40.5t94.5 -14.5q95 0 174 56t124 150.5t45 204.5q0 83 -27.5 158.5t-73.5 130.5t-110.5 87.5t-136.5 32.5q-97 0 -176 -55t-123 -149.5t-44 -207.5z" />
<glyph unicode="p" horiz-adv-x="1185" d="M144 -542v1591h165v-86h2q184 116 334 116q94 0 179 -42.5t146 -113.5t96.5 -167t35.5 -200q0 -99 -25.5 -188.5t-72.5 -161t-110.5 -124t-142.5 -81t-166 -28.5q-23 0 -60 8q-104 14 -211 65h-3v-588h-167zM311 194q125 -77 265 -77q98 0 180 58t128 156t46 213 q0 77 -23 147.5t-63 124t-99.5 85t-129.5 31.5q-128 0 -304 -111v-627z" />
<glyph unicode="q" horiz-adv-x="1194" d="M84 519q0 113 39 216t106 178.5t163 120.5t205 45q140 0 245.5 -30.5t206.5 -97.5v-1493h-167v633h-2q-75 -54 -149.5 -84t-160.5 -30q-139 0 -250 70t-173.5 194.5t-62.5 277.5zM252 528q0 -114 40 -205.5t119 -146t183 -54.5q135 0 288 118v635q-102 60 -264 60 q-109 0 -193 -54.5t-128.5 -146.5t-44.5 -206z" />
<glyph unicode="r" horiz-adv-x="787" d="M144 0v1049h165v-143h2q189 173 336 173q49 0 110 -15l-9 -154q-51 15 -110 15q-31 0 -64 -9.5t-58.5 -21.5t-59.5 -35.5t-51.5 -37.5t-50.5 -42t-43 -36v-743h-167z" />
<glyph unicode="s" horiz-adv-x="855" d="M80 53l28 141q60 -35 135.5 -59.5t142.5 -24.5q106 0 169 48.5t63 109.5q0 42 -18 76t-47.5 57.5t-68.5 43.5t-82 38t-86 37t-81.5 44t-68.5 55.5t-47.5 75.5t-17.5 101q0 130 99 207.5t260 77.5q68 0 140.5 -19.5t130.5 -48.5l-27 -133q-141 67 -240 67 q-95 0 -149 -42.5t-54 -106.5q0 -34 18 -61t48.5 -47t69.5 -37.5t83 -36t87.5 -38.5t82.5 -48.5t69.5 -63t48.5 -85t18 -111.5q0 -57 -26 -110t-74.5 -95t-124.5 -67t-168 -25q-86 0 -172 24t-141 56z" />
<glyph unicode="t" horiz-adv-x="821" d="M39 915v108l146 34v201l167 64v-273h345v-134h-345v-565q0 -58 8.5 -98.5t29.5 -73.5t60.5 -49.5t98.5 -16.5t112.5 19t115.5 54l19 -139q-49 -30 -125 -52.5t-161 -22.5q-36 0 -74 8.5t-74.5 25t-68 43.5t-56 60.5t-38.5 78.5t-14 96v632h-146z" />
<glyph unicode="u" horiz-adv-x="1178" d="M144 336v713h163v-676q0 -140 52.5 -198t165.5 -58q44 0 93.5 17.5t98.5 48.5t81.5 55.5t70.5 56.5v754h164v-1049h-158v146h-3q-5 -4 -16 -12q-38 -28 -60 -44t-66 -43t-78.5 -42t-81 -27t-90.5 -12q-155 0 -245.5 97.5t-90.5 272.5z" />
<glyph unicode="v" horiz-adv-x="1029" d="M9 1042l169 24l341 -844h3l340 842l156 -19l-435 -1045h-133z" />
<glyph unicode="w" horiz-adv-x="1523" d="M9 1049l167 12l251 -828h2l259 816h149l251 -816h7l266 828l153 -16l-355 -1045h-148l-254 814h-2l-261 -814h-147z" />
<glyph unicode="x" horiz-adv-x="1001" d="M14 14l396 523l-364 498l180 29l284 -403h2l298 400l166 -23l-375 -496l386 -528l-182 -23l-304 423h-3l-315 -423z" />
<glyph unicode="y" horiz-adv-x="1045" d="M-12 -391q33 -4 76 -4q83 0 143.5 30.5t103 91t77.5 158.5l53 138l-434 1022l176 19l345 -842h4l346 842l157 -19l-525 -1251q-79 -185 -178 -260.5t-250 -75.5q-45 0 -94 7v144z" />
<glyph unicode="z" horiz-adv-x="962" d="M67 0v130l628 776h-599v143h819v-124l-630 -779h637v-146h-855z" />
<glyph unicode="{" horiz-adv-x="636" d="M67 491v137q92 4 135.5 57.5t42.5 160.5l-10 434q-2 66 10.5 120.5t36 93.5t55 68t70.5 46t79.5 25.5t83.5 8.5v-121q-32 0 -62 -13t-56.5 -40t-42 -75t-14.5 -111l12 -413q5 -241 -203 -311q208 -70 203 -309l-12 -414q-1 -61 14.5 -109t42 -75t56.5 -40t62 -13v-120 q-53 0 -100.5 11.5t-92 38.5t-76 67.5t-50 103t-16.5 141.5l10 433q1 106 -42.5 160.5t-135.5 57.5z" />
<glyph unicode="|" horiz-adv-x="503" d="M170 -542v2184h163v-2184h-163z" />
<glyph unicode="}" horiz-adv-x="636" d="M67 -402q31 0 61.5 13t57.5 40t42.5 75.5t13.5 110.5l-9 412q-5 237 201 307v2q-206 73 -201 311l9 413q2 63 -13.5 111t-42.5 75t-57.5 40t-61.5 13v121q52 0 100 -11.5t93 -38t77 -67.5t50 -105t15 -145l-9 -431q-1 -71 17.5 -117.5t58 -71t101.5 -27.5v-137 q-93 -3 -136 -56.5t-41 -158.5l9 -434q3 -80 -15 -143.5t-50 -104t-77 -67.5t-93 -38t-100 -11v120z" />
<glyph unicode="~" d="M110 496q61 286 256 286q50 0 106 -19t105.5 -45.5t98.5 -53t102 -45t100 -18.5q29 0 52 9.5t38.5 23t29 37.5t21.5 44.5t19 53.5l96 -33q-10 -49 -22 -87.5t-32.5 -76t-47 -62.5t-66 -40t-88.5 -15q-45 0 -93.5 13.5t-89.5 34t-86.5 44t-84 44t-80.5 34t-78 13.5 q-33 0 -60 -15.5t-45.5 -42t-31 -57t-21.5 -66.5z" />
<glyph unicode="&#xa1;" horiz-adv-x="531" d="M142 949q0 52 36 88.5t88 36.5q23 0 45.5 -10t38.5 -26.5t26 -40t10 -48.5q0 -47 -36 -83t-84 -36q-51 0 -87.5 36t-36.5 83zM167 -9q8 172 59 631h76q4 -55 16.5 -196.5t24.5 -283.5t16 -211v-450h-192v510z" />
<glyph unicode="&#xa2;" horiz-adv-x="995" d="M84 750q0 221 119 375t309 183v261h156v-256q129 -13 247 -83l-26 -154q-75 45 -139.5 69t-141.5 24q-155 0 -254.5 -116t-99.5 -296q0 -110 45.5 -200.5t130 -144t190.5 -53.5q88 0 151.5 23t143.5 71l22 -151q-119 -77 -267 -94v-220h-155v227q-127 20 -225.5 97 t-152 191.5t-53.5 246.5z" />
<glyph unicode="&#xa3;" d="M122 0v119q21 13 49.5 43t59 73t56 90.5t42 101t16.5 98.5q0 76 -16 172h-192v130h160q-5 22 -17.5 66t-19 69t-12.5 62t-6 69q0 111 41 204.5t111 155.5t163 96.5t198 34.5q90 0 188.5 -24.5t156.5 -61.5l-62 -135q-116 75 -276 75q-96 0 -173.5 -40.5t-124.5 -121 t-47 -188.5q0 -31 5 -67.5t10 -60t16.5 -68.5t15.5 -65h451v-130h-421q11 -76 11 -132q0 -112 -41.5 -220.5t-118.5 -200.5h776v-144h-999z" />
<glyph unicode="&#xa4;" horiz-adv-x="1360" d="M108 295l160 160q-105 131 -105 311q0 174 105 313l-160 162l89 92l165 -162q141 104 311 104q167 0 310 -104l165 162l91 -92l-163 -162q106 -139 106 -315q0 -168 -108 -307l165 -162l-91 -94l-165 163q-151 -105 -310 -105q-170 0 -311 105l-163 -163zM302 764 q0 -102 49 -187t134 -134.5t188 -49.5q101 0 186.5 49.5t135.5 135t50 186.5q0 78 -29.5 147.5t-79.5 119t-118.5 78.5t-144.5 29q-77 0 -146 -29t-118 -78.5t-78 -119t-29 -147.5z" />
<glyph unicode="&#xa5;" d="M41 1539l187 25l400 -764h3l404 764l172 -28l-370 -674h322v-124h-393l-59 -110v-61h452v-124h-452v-443h-172v443h-468v124h468v61l-60 110h-408v124h335z" />
<glyph unicode="&#xa6;" horiz-adv-x="816" d="M326 270h165v-812h-165v812zM326 830v812h165v-812h-165z" />
<glyph unicode="&#xa7;" horiz-adv-x="999" d="M103 764q0 168 135 271q-110 99 -110 230q0 143 104.5 234.5t279.5 91.5q80 0 168.5 -22t149.5 -50l-20 -138q-67 29 -146 49t-147 20q-105 0 -166 -51.5t-61 -131.5q0 -38 21.5 -72t57.5 -62.5t82.5 -56.5t98 -56.5t103.5 -59.5t98.5 -69.5t82.5 -82.5t57.5 -102.5 t21.5 -125.5q0 -161 -120 -259q101 -105 101 -244q0 -64 -26.5 -122.5t-77 -105.5t-133.5 -75t-188 -28q-86 0 -184 22.5t-168 51.5l20 146q70 -33 163.5 -57t161.5 -24t121.5 16t85 42.5t48.5 58t17 65.5q0 43 -18 82t-48 68.5t-70.5 58.5t-86 53t-93.5 52t-93 54.5 t-85.5 61.5t-71 72.5t-48 87.5t-17.5 107zM249 771q0 -40 21 -78t53 -66.5t80 -60t91 -54t97.5 -53t89.5 -52.5q43 33 63 77.5t20 85.5q0 48 -19 91t-46.5 73.5t-73.5 62.5t-83.5 52.5t-93.5 51t-89 50.5q-110 -59 -110 -180z" />
<glyph unicode="&#xa8;" horiz-adv-x="828" d="M89 1363q0 40 29.5 69t71.5 29t72 -29t30 -69q0 -43 -29.5 -73t-72.5 -30q-42 0 -71.5 30t-29.5 73zM537 1363q0 20 7.5 38t21 31t31.5 21t38 8q43 0 73 -29t30 -69q0 -43 -30 -73t-73 -30q-41 0 -69.5 30t-28.5 73z" />
<glyph unicode="&#xa9;" horiz-adv-x="1784" d="M87 777q0 164 63.5 313t172 257t258 171.5t313.5 63.5q162 0 310.5 -63.5t255.5 -171.5t170.5 -257t63.5 -313q0 -109 -28.5 -213t-80.5 -192t-126 -162.5t-161.5 -126.5t-191.5 -81t-212 -29q-164 0 -313.5 64t-257.5 172t-172 256.5t-64 311.5zM213 777q0 -143 52 -270 t142 -218t217 -144.5t270 -53.5t269 53.5t215.5 144.5t141 218t51.5 270t-51.5 270t-141 217t-215.5 142.5t-269.5 52.5t-270 -52.5t-216.5 -142.5t-142 -217t-52 -270zM450 762q0 98 31.5 188t86.5 157.5t136 107.5t176 40q168 0 316 -91l-21 -115q-142 89 -290 89 q-137 0 -218.5 -101t-81.5 -262q0 -99 42.5 -182.5t118 -133t167.5 -49.5q81 0 138.5 23.5t139.5 76.5l28 -115q-159 -103 -327 -103q-54 0 -104 12.5t-94 35t-82 54.5t-67.5 72.5t-50.5 87t-32.5 99.5t-11.5 109z" />
<glyph unicode="&#xaa;" horiz-adv-x="638" d="M60 867q0 34 11.5 62.5t30 48t45 34.5t54.5 23.5t60 13.5q74 13 158 17v41q0 31 -10.5 53t-32 33.5t-53.5 11.5q-80 0 -211 -48l3 110q122 46 221 46q51 0 91.5 -15.5t67 -42.5t40.5 -63.5t14 -79.5v-403h-128v66h-2q-99 -80 -186 -80q-73 0 -123 47t-50 125zM185 878 q0 -40 22.5 -63.5t60.5 -23.5q12 0 24 2t21.5 4.5t22 8t19 8.5t19.5 11t16 10t16 11l13 9v132q-78 -5 -115 -11q-51 -8 -85 -33t-34 -65z" />
<glyph unicode="&#xab;" horiz-adv-x="1137" d="M108 522l338 415l126 -72l-280 -343l286 -339l-132 -71zM560 522l339 415l127 -72l-281 -343l288 -339l-134 -71z" />
<glyph unicode="&#xac;" d="M132 615v147h980v-429h-149v282h-831z" />
<glyph unicode="&#xad;" horiz-adv-x="746" d="M60 489v149h626v-149h-626z" />
<glyph unicode="&#xae;" horiz-adv-x="1784" d="M87 777q0 164 63.5 313t172 257t258 171.5t313.5 63.5q162 0 310.5 -63.5t255.5 -171.5t170.5 -257t63.5 -313q0 -109 -28.5 -213t-80.5 -192t-126 -162.5t-161.5 -126.5t-191.5 -81t-212 -29q-164 0 -313.5 64t-257.5 172t-172 256.5t-64 311.5zM213 777q0 -143 52 -270 t142 -218t217 -144.5t270 -53.5t269 53.5t215.5 144.5t141 218t51.5 270t-51.5 270t-141 217t-215.5 142.5t-269.5 52.5t-270 -52.5t-216.5 -142.5t-142 -217t-52 -270zM615 331v906h291q126 0 206.5 -77t80.5 -188q0 -85 -55.5 -159t-128.5 -95l230 -366l-130 -31l-227 376 h-141v-366h-126zM741 803h155q79 0 125.5 46.5t46.5 120.5q0 166 -203 166h-124v-333z" />
<glyph unicode="&#xaf;" horiz-adv-x="828" d="M112 1294v139h606v-139h-606z" />
<glyph unicode="&#xb0;" horiz-adv-x="725" d="M50 1253q0 131 90 220t217 89q131 0 218.5 -87.5t87.5 -216.5q0 -65 -25.5 -122.5t-67.5 -97t-98.5 -62t-116.5 -22.5q-129 0 -217 86.5t-88 212.5zM163 1253q0 -32 9.5 -62.5t27 -55t41.5 -43t53.5 -28.5t62.5 -10q82 0 139 58.5t57 145.5q0 83 -55.5 143t-140.5 60 q-83 0 -139.5 -61.5t-54.5 -146.5z" />
<glyph unicode="&#xb1;" d="M132 0v146h980v-146h-980zM132 721v139h417v429h146v-429h417v-139h-417v-429h-146v429h-417z" />
<glyph unicode="&#xb2;" horiz-adv-x="741" d="M108 1495q111 85 254 85q113 0 192 -67t79 -173q0 -27 -8 -57t-17.5 -54t-30.5 -57t-33 -51.5t-39.5 -52.5t-35.5 -44t-35 -41q-32 -35 -81 -91.5t-65 -74.5h361v-108h-534v80q22 26 90.5 103t108.5 124q39 46 63 76t56.5 76t48.5 84t16 68q0 64 -44 106t-111 42 q-59 0 -109.5 -25t-103.5 -69z" />
<glyph unicode="&#xb3;" horiz-adv-x="741" d="M89 757l43 103q83 -57 189 -57q88 0 139.5 46t51.5 114q0 70 -53.5 117t-166.5 47h-38v100h41q89 0 140.5 41.5t51.5 94.5q0 48 -39.5 79.5t-111.5 31.5q-39 0 -71.5 -4.5t-59 -13.5t-56.5 -23l-32 103q108 46 230 46q127 0 197.5 -60t70.5 -141q0 -45 -19 -84.5 t-58.5 -69.5t-94.5 -41q102 -19 155.5 -82t53.5 -143q0 -51 -21 -98.5t-60 -85.5t-101.5 -61t-138.5 -23q-72 0 -138.5 18t-103.5 46z" />
<glyph unicode="&#xb4;" horiz-adv-x="828" d="M261 1265l242 338l165 -41l-316 -325z" />
<glyph unicode="&#xb5;" horiz-adv-x="1257" d="M176 -57v1106h167v-599q0 -55 8.5 -103t29 -91.5t50.5 -74t75.5 -48.5t101.5 -18q43 0 83.5 11.5t71.5 31.5t57.5 46.5t45 55t30.5 58.5q19 55 19 118v613h166v-757q0 -99 23 -141t85 -46l-18 -124q-37 -8 -55 -8q-73 0 -123.5 49.5t-60.5 155.5h-4q-16 -28 -37.5 -54.5 t-52 -53t-65.5 -46.5t-80.5 -32.5t-93.5 -12.5q-57 0 -106 13t-91 44t-66 79v-158q0 -322 23 -429h-148q-35 97 -35 415z" />
<glyph unicode="&#xb6;" horiz-adv-x="1399" d="M80 1071q0 151 73.5 261t204.5 165.5t305 55.5h604v-115h-158v-1960h-131v1960h-260v-1960h-133v1128q-238 5 -371.5 131.5t-133.5 333.5z" />
<glyph unicode="&#xb7;" horiz-adv-x="533" d="M144 723q0 47 35.5 84t83.5 37q51 0 88 -37t37 -84q0 -52 -36.5 -88t-88.5 -36q-32 0 -59 16.5t-43.5 45t-16.5 62.5z" />
<glyph unicode="&#xb8;" horiz-adv-x="828" d="M211 -429l19 77q25 -13 67.5 -22.5t75.5 -9.5q32 0 58 7.5t45.5 29t19.5 55.5q0 91 -189 116l84 178h100l-55 -119q43 -5 83.5 -26.5t69.5 -61t29 -85.5q0 -59 -35 -100.5t-89.5 -60t-122.5 -18.5q-78 0 -160 40z" />
<glyph unicode="&#xb9;" horiz-adv-x="741" d="M178 709v105h174v592l-174 -86v130l220 112h86v-748h168v-105h-474z" />
<glyph unicode="&#xba;" horiz-adv-x="720" d="M57 1002q0 84 38.5 155t108 113.5t153.5 42.5q87 0 157 -42.5t108.5 -113t38.5 -153.5q0 -131 -86 -220t-218 -89q-128 0 -214 88.5t-86 218.5zM192 999q0 -82 47.5 -140.5t122.5 -58.5q73 0 120.5 60t47.5 146q0 82 -49.5 140.5t-123.5 58.5q-73 0 -119 -59t-46 -147z " />
<glyph unicode="&#xbb;" horiz-adv-x="1137" d="M108 865l132 70l338 -413l-338 -412l-128 73l281 339zM560 865l133 70l340 -413l-340 -412l-128 73l283 339z" />
<glyph unicode="&#xbc;" horiz-adv-x="1724" d="M178 709v105h174v592l-174 -86v130l220 112h86v-748h168v-105h-474zM302 -57l1056 1770l110 -62l-1054 -1768zM1047 211v86l405 558h119v-544h96v-100h-96v-211h-131v211h-393zM1186 311h254v352z" />
<glyph unicode="&#xbd;" horiz-adv-x="1724" d="M178 709v105h174v592l-174 -86v130l220 112h86v-748h168v-105h-474zM278 -57l1057 1770l110 -62l-1054 -1768zM1090 786q110 83 254 83q114 0 192.5 -66t78.5 -172q0 -31 -9 -64t-28 -68t-34.5 -61t-44.5 -63.5t-41.5 -53t-41.5 -48.5q-16 -18 -33 -36.5t-31.5 -35 t-28 -32.5t-28 -32.5t-26.5 -28.5h363v-108h-535v80q23 26 91.5 103t107.5 124q31 36 50 59t48 61.5t45.5 67t29 60.5t12.5 56q0 42 -20 76t-55.5 53t-79.5 19q-60 0 -110.5 -25.5t-103.5 -70.5z" />
<glyph unicode="&#xbe;" horiz-adv-x="1724" d="M89 757l43 103q83 -57 189 -57q88 0 139.5 46t51.5 114q0 70 -53.5 117t-166.5 47h-38v100h41q89 0 140.5 41.5t51.5 94.5q0 48 -39.5 79.5t-111.5 31.5q-39 0 -71.5 -4.5t-59 -13.5t-56.5 -23l-32 103q108 46 230 46q127 0 197.5 -60t70.5 -141q0 -45 -19 -84.5 t-58.5 -69.5t-94.5 -41q102 -19 155.5 -82t53.5 -143q0 -51 -21 -98.5t-60 -85.5t-101.5 -61t-138.5 -23q-72 0 -138.5 18t-103.5 46zM302 -57l1056 1770l110 -62l-1054 -1768zM1047 211v86l405 558h119v-544h96v-100h-96v-211h-131v211h-393zM1186 311h254v352z" />
<glyph unicode="&#xbf;" horiz-adv-x="983" d="M62 -142q0 58 17.5 108.5t46 88.5t64 72.5t73 66.5t70 64t58.5 71.5t36 82.5q33 107 33 223h155q0 -42 -1 -64t-3 -62.5t-6.5 -67t-12 -59.5t-19 -60t-27.5 -49q-24 -35 -66.5 -76.5t-81 -77t-75.5 -74.5t-59 -84t-22 -91q0 -117 71.5 -190t194.5 -73q40 0 84 12t88 34.5 t71 38.5t63 40l71 -123q-222 -144 -401 -144q-189 0 -305.5 109t-116.5 284zM424 940q0 33 16.5 62t45.5 45.5t63 16.5q48 0 83.5 -36.5t35.5 -87.5q0 -48 -36 -84.5t-83 -36.5q-51 0 -88 36.5t-37 84.5z" />
<glyph unicode="&#xc0;" horiz-adv-x="1345" d="M16 2l567 1551h188l555 -1548l-188 -14l-158 462h-616l-165 -462zM398 2001l160 41l245 -338l-89 -29zM412 601h518l-223 633q-15 47 -31 110h-6q-8 -34 -32 -110z" />
<glyph unicode="&#xc1;" horiz-adv-x="1345" d="M16 2l567 1551h188l555 -1548l-188 -14l-158 462h-616l-165 -462zM412 601h518l-223 633q-15 47 -31 110h-6q-8 -34 -32 -110zM542 1704l242 338l165 -41l-316 -326z" />
<glyph unicode="&#xc2;" horiz-adv-x="1345" d="M16 2l567 1551h188l555 -1548l-188 -14l-158 462h-616l-165 -462zM329 1720l284 278h128l277 -278l-108 -45l-231 223l-238 -223zM412 601h518l-223 633q-15 47 -31 110h-6q-8 -34 -32 -110z" />
<glyph unicode="&#xc3;" horiz-adv-x="1345" d="M16 2l567 1551h188l555 -1548l-188 -14l-158 462h-616l-165 -462zM357 1704q2 54 23.5 100.5t61.5 75.5t90 29q37 0 77 -13.5t69 -30.5t65 -30.5t67 -13.5q37 0 60 25t29 63l91 -9q-4 -84 -48 -140t-125 -56q-37 0 -77.5 14.5t-70 32t-64.5 32t-61 14.5 q-40 0 -66.5 -31.5t-34.5 -73.5zM412 601h518l-223 633q-15 47 -31 110h-6q-8 -34 -32 -110z" />
<glyph unicode="&#xc4;" horiz-adv-x="1345" d="M16 2l567 1551h188l555 -1548l-188 -14l-158 462h-616l-165 -462zM347 1802q0 39 30 68.5t71 29.5q28 0 52 -13.5t37.5 -36t13.5 -48.5q0 -43 -30 -73t-73 -30q-27 0 -50 13.5t-37 37.5t-14 52zM412 601h518l-223 633q-15 47 -31 110h-6q-8 -34 -32 -110zM796 1802 q0 40 28.5 69t69.5 29q43 0 73 -29t30 -69q0 -43 -30 -73t-73 -30q-27 0 -49.5 13.5t-35.5 37.5t-13 52z" />
<glyph unicode="&#xc5;" horiz-adv-x="1345" d="M16 2l567 1551h188l555 -1548l-188 -14l-158 462h-616l-165 -462zM412 601h518l-223 633q-15 47 -31 110h-6q-8 -34 -32 -110zM441 1840q0 99 70 159.5t165 60.5q100 0 165 -63.5t65 -156.5q0 -90 -66 -154t-164 -64q-102 0 -168.5 63.5t-66.5 154.5zM544 1840 q0 -55 36.5 -97t92.5 -42q58 0 96 41.5t38 97.5q0 36 -15 67t-46.5 52t-72.5 21q-58 0 -93.5 -41t-35.5 -99z" />
<glyph unicode="&#xc6;" horiz-adv-x="1952" d="M7 5l830 1548h883l10 -147h-681l65 -526h551l10 -144h-539l76 -592h647l9 -144h-814l-62 472h-549l-256 -477zM515 615h461l-77 574q-6 50 -12 148h-2q-4 -8 -15.5 -34t-17 -38.5t-16.5 -34.5t-22 -41z" />
<glyph unicode="&#xc7;" horiz-adv-x="1336" d="M108 784q0 173 54.5 322t151.5 254.5t235.5 166t301.5 60.5q111 0 224 -33t190 -83l-21 -168q-200 126 -382 126q-116 0 -219 -44t-181 -124.5t-124 -203t-46 -271.5q0 -126 26.5 -232.5t74.5 -184t116 -132t151 -81t179 -26.5q122 0 216.5 33t211.5 98l20 -165 q-80 -53 -199 -90t-244 -40l-39 -83q43 -5 83.5 -26.5t69.5 -61t29 -85.5q0 -59 -34.5 -100.5t-89 -60t-122.5 -18.5q-79 0 -161 40l19 77q24 -13 67 -22.5t77 -9.5q32 0 57.5 7.5t45 29t19.5 55.5q0 91 -189 116l67 147q-140 12 -257 73.5t-201 164t-130.5 250t-46.5 325.5 z" />
<glyph unicode="&#xc8;" horiz-adv-x="1187" d="M190 0v1553h874v-144h-693v-527h597v-144h-597v-592h743v-146h-924zM366 2001l162 41l243 -338l-88 -29z" />
<glyph unicode="&#xc9;" horiz-adv-x="1187" d="M190 0v1553h874v-144h-693v-527h597v-144h-597v-592h743v-146h-924zM510 1704l242 338l165 -41l-316 -326z" />
<glyph unicode="&#xca;" horiz-adv-x="1187" d="M190 0v1553h874v-144h-693v-527h597v-144h-597v-592h743v-146h-924zM297 1720l286 278h126l278 -278l-107 -45l-233 223l-237 -223z" />
<glyph unicode="&#xcb;" horiz-adv-x="1187" d="M190 0v1553h874v-144h-693v-527h597v-144h-597v-592h743v-146h-924zM316 1802q0 26 13.5 48.5t37 36t50.5 13.5q28 0 51.5 -13.5t37 -36t13.5 -48.5q0 -43 -29.5 -73t-72.5 -30q-42 0 -71.5 30t-29.5 73zM764 1802q0 26 13 48.5t35.5 36t49.5 13.5q43 0 73 -29t30 -69 q0 -43 -30 -73t-73 -30q-27 0 -49.5 13.5t-35.5 37.5t-13 52z" />
<glyph unicode="&#xcc;" horiz-adv-x="562" d="M7 2001l160 41l245 -338l-89 -29zM190 0v1553h181v-1553h-181z" />
<glyph unicode="&#xcd;" horiz-adv-x="562" d="M151 1704l242 338l165 -41l-316 -326zM190 0v1553h181v-1553h-181z" />
<glyph unicode="&#xce;" horiz-adv-x="562" d="M-62 1720l284 278h128l278 -278l-109 -45l-231 223l-238 -223zM190 0v1553h181v-1553h-181z" />
<glyph unicode="&#xcf;" horiz-adv-x="562" d="M-43 1802q0 39 29.5 68.5t70.5 29.5q43 0 73 -29t30 -69q0 -43 -30 -73t-73 -30q-41 0 -70.5 30t-29.5 73zM190 0v1553h181v-1553h-181zM405 1802q0 40 28.5 69t69.5 29q43 0 73 -29t30 -69q0 -43 -30 -73t-73 -30q-41 0 -69.5 30t-28.5 73z" />
<glyph unicode="&#xd0;" horiz-adv-x="1497" d="M0 702v151h190v700h498q107 0 202.5 -27.5t172.5 -77t138.5 -119.5t103 -155t63.5 -184t22 -206q0 -176 -53 -323.5t-146 -248t-222.5 -156.5t-280.5 -56h-498v702h-190zM371 149h288q115 0 213 41t171.5 119.5t115 200t41.5 274.5q0 128 -39 242t-108 197.5t-169.5 132 t-217.5 48.5h-295v-551h400v-151h-400v-553z" />
<glyph unicode="&#xd1;" horiz-adv-x="1623" d="M190 0v1553h174l894 -1268q-3 62 -3 170v1098h178v-1553h-175l-896 1272q2 -46 2 -141v-1131h-174zM496 1704q4 85 51.5 145t122.5 60q37 0 77.5 -13.5t69.5 -30.5t65.5 -30.5t66.5 -13.5q37 0 60 25t29 63l91 -9q-4 -84 -48 -140t-125 -56q-36 0 -76.5 14.5t-70.5 32 t-64.5 32t-61.5 14.5t-49 -16t-34 -39t-17 -50z" />
<glyph unicode="&#xd2;" horiz-adv-x="1612" d="M108 777q0 173 52 324t143.5 258.5t221.5 169.5t280 62q129 0 241 -41.5t195.5 -116.5t143 -176.5t90 -224t30.5 -255.5q0 -173 -53 -323.5t-145 -257.5t-222 -168.5t-280 -61.5q-129 0 -240.5 41.5t-194.5 116t-142.5 175.5t-89.5 222.5t-30 255.5zM295 793 q0 -103 20 -199.5t62 -181t102 -147t145 -99t186 -36.5q94 0 176 33.5t142 93t103 139t64.5 172.5t21.5 194q0 102 -20 199t-62.5 183t-102.5 150t-145.5 101.5t-186.5 37.5q-79 0 -149.5 -24t-125 -67.5t-98.5 -103t-73 -131t-44 -151t-15 -163.5zM532 2001l161 41 l244 -338l-89 -29z" />
<glyph unicode="&#xd3;" horiz-adv-x="1612" d="M108 777q0 173 52 324t143.5 258.5t221.5 169.5t280 62q129 0 241 -41.5t195.5 -116.5t143 -176.5t90 -224t30.5 -255.5q0 -173 -53 -323.5t-145 -257.5t-222 -168.5t-280 -61.5q-129 0 -240.5 41.5t-194.5 116t-142.5 175.5t-89.5 222.5t-30 255.5zM295 793 q0 -103 20 -199.5t62 -181t102 -147t145 -99t186 -36.5q94 0 176 33.5t142 93t103 139t64.5 172.5t21.5 194q0 102 -20 199t-62.5 183t-102.5 150t-145.5 101.5t-186.5 37.5q-79 0 -149.5 -24t-125 -67.5t-98.5 -103t-73 -131t-44 -151t-15 -163.5zM673 1704l242 338 l166 -41l-317 -326z" />
<glyph unicode="&#xd4;" horiz-adv-x="1612" d="M108 777q0 173 52 324t143.5 258.5t221.5 169.5t280 62q129 0 241 -41.5t195.5 -116.5t143 -176.5t90 -224t30.5 -255.5q0 -173 -53 -323.5t-145 -257.5t-222 -168.5t-280 -61.5q-129 0 -240.5 41.5t-194.5 116t-142.5 175.5t-89.5 222.5t-30 255.5zM295 793 q0 -103 20 -199.5t62 -181t102 -147t145 -99t186 -36.5q94 0 176 33.5t142 93t103 139t64.5 172.5t21.5 194q0 102 -20 199t-62.5 183t-102.5 150t-145.5 101.5t-186.5 37.5q-79 0 -149.5 -24t-125 -67.5t-98.5 -103t-73 -131t-44 -151t-15 -163.5zM460 1720l285 278h127 l278 -278l-108 -45l-232 223l-238 -223z" />
<glyph unicode="&#xd5;" horiz-adv-x="1612" d="M108 777q0 173 52 324t143.5 258.5t221.5 169.5t280 62q129 0 241 -41.5t195.5 -116.5t143 -176.5t90 -224t30.5 -255.5q0 -173 -53 -323.5t-145 -257.5t-222 -168.5t-280 -61.5q-129 0 -240.5 41.5t-194.5 116t-142.5 175.5t-89.5 222.5t-30 255.5zM295 793 q0 -103 20 -199.5t62 -181t102 -147t145 -99t186 -36.5q94 0 176 33.5t142 93t103 139t64.5 172.5t21.5 194q0 102 -20 199t-62.5 183t-102.5 150t-145.5 101.5t-186.5 37.5q-79 0 -149.5 -24t-125 -67.5t-98.5 -103t-73 -131t-44 -151t-15 -163.5zM489 1704q2 54 23 100.5 t61 75.5t90 29q37 0 77.5 -13.5t69.5 -30.5t65.5 -30.5t66.5 -13.5q37 0 60 25t29 63l90 -9q-4 -84 -47.5 -140t-124.5 -56q-36 0 -76.5 14.5t-70.5 32t-65 32t-61 14.5q-40 0 -66 -31.5t-34 -73.5z" />
<glyph unicode="&#xd6;" horiz-adv-x="1612" d="M108 777q0 173 52 324t143.5 258.5t221.5 169.5t280 62q129 0 241 -41.5t195.5 -116.5t143 -176.5t90 -224t30.5 -255.5q0 -173 -53 -323.5t-145 -257.5t-222 -168.5t-280 -61.5q-129 0 -240.5 41.5t-194.5 116t-142.5 175.5t-89.5 222.5t-30 255.5zM295 793 q0 -103 20 -199.5t62 -181t102 -147t145 -99t186 -36.5q94 0 176 33.5t142 93t103 139t64.5 172.5t21.5 194q0 102 -20 199t-62.5 183t-102.5 150t-145.5 101.5t-186.5 37.5q-79 0 -149.5 -24t-125 -67.5t-98.5 -103t-73 -131t-44 -151t-15 -163.5zM482 1802q0 39 30 68.5 t71 29.5q42 0 72.5 -29t30.5 -69q0 -43 -30 -73t-73 -30q-27 0 -50.5 13.5t-37 37.5t-13.5 52zM930 1802q0 40 29 69t69 29q43 0 73 -29t30 -69q0 -43 -30 -73t-73 -30q-41 0 -69.5 30t-28.5 73z" />
<glyph unicode="&#xd7;" d="M197 292l322 323l-315 315l100 101l314 -320l324 327l105 -103l-324 -324l317 -316l-100 -101l-318 316l-322 -323z" />
<glyph unicode="&#xd8;" horiz-adv-x="1612" d="M46 -29l220 267q-77 107 -117.5 245.5t-40.5 293.5q0 173 52 324t143.5 258.5t221.5 169.5t280 62q261 0 443 -167l209 251l103 -88l-218 -267q78 -109 120.5 -248.5t42.5 -294.5q0 -173 -53 -323.5t-145 -257.5t-222 -168.5t-280 -61.5q-262 0 -446 169l-208 -252z M295 793q0 -230 93 -407l748 903q-64 68 -149.5 106t-186.5 38q-79 0 -149.5 -24t-125 -67.5t-98.5 -103t-73 -131t-44 -151t-15 -163.5zM475 270q133 -140 335 -140q94 0 176 33.5t142 93t103 139t64.5 172.5t21.5 194q0 234 -98 413z" />
<glyph unicode="&#xd9;" horiz-adv-x="1513" d="M158 587v966h180v-983q0 -96 30 -178t84.5 -141.5t134 -93t175.5 -33.5q186 0 303 124t117 322v983h176v-966q0 -141 -46.5 -259t-127.5 -196.5t-190.5 -122t-234.5 -43.5q-130 0 -241 44t-190.5 124t-124.5 196.5t-45 256.5zM482 2001l160 41l245 -338l-89 -29z" />
<glyph unicode="&#xda;" horiz-adv-x="1513" d="M158 587v966h180v-983q0 -96 30 -178t84.5 -141.5t134 -93t175.5 -33.5q186 0 303 124t117 322v983h176v-966q0 -141 -46.5 -259t-127.5 -196.5t-190.5 -122t-234.5 -43.5q-130 0 -241 44t-190.5 124t-124.5 196.5t-45 256.5zM626 1704l241 338l166 -41l-317 -326z" />
<glyph unicode="&#xdb;" horiz-adv-x="1513" d="M158 587v966h180v-983q0 -96 30 -178t84.5 -141.5t134 -93t175.5 -33.5q186 0 303 124t117 322v983h176v-966q0 -141 -46.5 -259t-127.5 -196.5t-190.5 -122t-234.5 -43.5q-130 0 -241 44t-190.5 124t-124.5 196.5t-45 256.5zM412 1720l285 278h128l277 -278l-108 -45 l-232 223l-237 -223z" />
<glyph unicode="&#xdc;" horiz-adv-x="1513" d="M158 587v966h180v-983q0 -96 30 -178t84.5 -141.5t134 -93t175.5 -33.5q186 0 303 124t117 322v983h176v-966q0 -141 -46.5 -259t-127.5 -196.5t-190.5 -122t-234.5 -43.5q-130 0 -241 44t-190.5 124t-124.5 196.5t-45 256.5zM432 1802q0 26 13.5 48.5t36.5 36t50 13.5 q43 0 73 -29t30 -69q0 -43 -30 -73t-73 -30q-41 0 -70.5 30t-29.5 73zM880 1802q0 40 28.5 69t69.5 29q43 0 73 -29t30 -69q0 -43 -30 -73t-73 -30q-27 0 -49.5 13.5t-35.5 37.5t-13 52z" />
<glyph unicode="&#xdd;" horiz-adv-x="1308" d="M16 1543l204 19l436 -762h3l445 764l185 -21l-548 -910v-633h-181v633zM522 1704l242 338l166 -41l-317 -326z" />
<glyph unicode="&#xde;" horiz-adv-x="1185" d="M190 0v1553h181v-309h264q148 0 263 -57t177.5 -160t62.5 -236q0 -140 -65 -250.5t-181 -172t-261 -61.5h-260v-307h-181zM371 453h237q155 0 250.5 92t95.5 241q0 144 -91.5 229t-244.5 85h-247v-647z" />
<glyph unicode="&#xdf;" horiz-adv-x="1228" d="M165 0v1221q0 122 53 217.5t151 149.5t225 54q67 0 129.5 -15.5t117 -47t95 -76t64 -108t23.5 -137.5q0 -48 -13 -92t-34 -77.5t-45.5 -64t-49.5 -56.5t-46 -49t-33.5 -47.5t-12.5 -46.5q0 -21 19.5 -46t51 -51t69.5 -55t76 -64.5t69.5 -73.5t51 -87t19.5 -101 q0 -102 -49.5 -184.5t-132.5 -127t-181 -44.5q-99 0 -170.5 24t-142.5 69l63 120q43 -32 105 -53t127 -21q95 0 157 63.5t62 142.5q0 37 -16 73t-42 65.5t-59.5 59t-68.5 54t-68.5 51t-59.5 50t-42 50t-16 52.5q0 34 10.5 66t28 56.5t39.5 51t45 49t45.5 50.5t39.5 56.5 t28 66t11 78.5q0 101 -74 169t-185 68q-82 0 -142.5 -31t-94 -93.5t-33.5 -150.5v-1227h-164z" />
<glyph unicode="&#xe0;" horiz-adv-x="1054" d="M84 283q0 60 21.5 111t56.5 86t84.5 62.5t99.5 43.5t107 27q171 27 292 34v89q0 66 -22 111.5t-66 69t-108 23.5q-142 0 -369 -89l10 148q79 32 178.5 56t196.5 24q85 0 152 -27t109.5 -74t64.5 -108t22 -132v-738h-165v119h-3q-47 -33 -81.5 -54t-83 -44.5t-99 -35.5 t-102.5 -12q-79 0 -145.5 37t-108 108.5t-41.5 164.5zM247 290q0 -55 22 -96t61.5 -62.5t90.5 -21.5q150 0 324 139v273q-153 -11 -226 -21q-42 -6 -80.5 -16.5t-74 -28.5t-61 -41t-41 -55t-15.5 -70zM252 1562l160 41l244 -338l-89 -28z" />
<glyph unicode="&#xe1;" horiz-adv-x="1054" d="M84 283q0 60 21.5 111t56.5 86t84.5 62.5t99.5 43.5t107 27q171 27 292 34v89q0 66 -22 111.5t-66 69t-108 23.5q-142 0 -369 -89l10 148q79 32 178.5 56t196.5 24q85 0 152 -27t109.5 -74t64.5 -108t22 -132v-738h-165v119h-3q-47 -33 -81.5 -54t-83 -44.5t-99 -35.5 t-102.5 -12q-79 0 -145.5 37t-108 108.5t-41.5 164.5zM247 290q0 -55 22 -96t61.5 -62.5t90.5 -21.5q150 0 324 139v273q-153 -11 -226 -21q-42 -6 -80.5 -16.5t-74 -28.5t-61 -41t-41 -55t-15.5 -70zM395 1265l243 338l165 -41l-316 -325z" />
<glyph unicode="&#xe2;" horiz-adv-x="1054" d="M84 283q0 60 21.5 111t56.5 86t84.5 62.5t99.5 43.5t107 27q171 27 292 34v89q0 66 -22 111.5t-66 69t-108 23.5q-142 0 -369 -89l10 148q79 32 178.5 56t196.5 24q85 0 152 -27t109.5 -74t64.5 -108t22 -132v-738h-165v119h-3q-47 -33 -81.5 -54t-83 -44.5t-99 -35.5 t-102.5 -12q-79 0 -145.5 37t-108 108.5t-41.5 164.5zM183 1282l284 278h127l278 -278l-108 -45l-232 222l-237 -222zM247 290q0 -55 22 -96t61.5 -62.5t90.5 -21.5q150 0 324 139v273q-153 -11 -226 -21q-42 -6 -80.5 -16.5t-74 -28.5t-61 -41t-41 -55t-15.5 -70z" />
<glyph unicode="&#xe3;" horiz-adv-x="1054" d="M84 283q0 60 21.5 111t56.5 86t84.5 62.5t99.5 43.5t107 27q171 27 292 34v89q0 66 -22 111.5t-66 69t-108 23.5q-142 0 -369 -89l10 148q79 32 178.5 56t196.5 24q85 0 152 -27t109.5 -74t64.5 -108t22 -132v-738h-165v119h-3q-47 -33 -81.5 -54t-83 -44.5t-99 -35.5 t-102.5 -12q-79 0 -145.5 37t-108 108.5t-41.5 164.5zM211 1265q2 54 23 100.5t61 76t91 29.5q37 0 77 -14t69 -30.5t65 -30t66 -13.5q38 0 61 24.5t28 63.5l92 -10q-4 -83 -48 -139.5t-126 -56.5q-36 0 -76.5 14.5t-70 32t-64.5 32t-61 14.5q-40 0 -66.5 -31.5t-34.5 -73.5 zM247 290q0 -55 22 -96t61.5 -62.5t90.5 -21.5q150 0 324 139v273q-153 -11 -226 -21q-42 -6 -80.5 -16.5t-74 -28.5t-61 -41t-41 -55t-15.5 -70z" />
<glyph unicode="&#xe4;" horiz-adv-x="1054" d="M84 283q0 60 21.5 111t56.5 86t84.5 62.5t99.5 43.5t107 27q171 27 292 34v89q0 66 -22 111.5t-66 69t-108 23.5q-142 0 -369 -89l10 148q79 32 178.5 56t196.5 24q85 0 152 -27t109.5 -74t64.5 -108t22 -132v-738h-165v119h-3q-47 -33 -81.5 -54t-83 -44.5t-99 -35.5 t-102.5 -12q-79 0 -145.5 37t-108 108.5t-41.5 164.5zM201 1363q0 40 30 69t71 29q42 0 72.5 -29t30.5 -69q0 -43 -30 -73t-73 -30q-20 0 -39 8t-32.5 22t-21.5 33t-8 40zM247 290q0 -55 22 -96t61.5 -62.5t90.5 -21.5q150 0 324 139v273q-153 -11 -226 -21 q-42 -6 -80.5 -16.5t-74 -28.5t-61 -41t-41 -55t-15.5 -70zM649 1363q0 40 29 69t70 29q42 0 72.5 -29t30.5 -69q0 -43 -30 -73t-73 -30q-27 0 -50 13.5t-36 37.5t-13 52z" />
<glyph unicode="&#xe5;" horiz-adv-x="1054" d="M84 283q0 60 21.5 111t56.5 86t84.5 62.5t99.5 43.5t107 27q171 27 292 34v89q0 66 -22 111.5t-66 69t-108 23.5q-142 0 -369 -89l10 148q79 32 178.5 56t196.5 24q85 0 152 -27t109.5 -74t64.5 -108t22 -132v-738h-165v119h-3q-47 -33 -81.5 -54t-83 -44.5t-99 -35.5 t-102.5 -12q-79 0 -145.5 37t-108 108.5t-41.5 164.5zM247 290q0 -55 22 -96t61.5 -62.5t90.5 -21.5q150 0 324 139v273q-153 -11 -226 -21q-42 -6 -80.5 -16.5t-74 -28.5t-61 -41t-41 -55t-15.5 -70zM295 1402q0 98 69.5 159t165.5 61q100 0 164.5 -64t64.5 -156 q0 -91 -65.5 -154.5t-163.5 -63.5q-103 0 -169 63t-66 155zM398 1402q0 -56 37 -98t93 -42q38 0 69 19.5t47.5 51.5t16.5 69q0 55 -36 97t-97 42q-58 0 -94 -41t-36 -98z" />
<glyph unicode="&#xe6;" horiz-adv-x="1758" d="M84 283q0 60 21.5 109.5t55 84t82.5 62t97 44.5t106 30q32 7 90 14.5t121.5 13.5t78.5 8v89q0 99 -50 151.5t-147 52.5q-143 0 -361 -91l9 148q201 82 369 82q112 0 189.5 -53t109.5 -141q40 60 93.5 102.5t119.5 66t139 23.5q199 0 327 -146.5t155 -395.5l-788 -73 q3 -72 30.5 -136t73 -111t109.5 -74.5t137 -27.5q57 0 109.5 10.5t99.5 32t80.5 41.5t76.5 50l61 -127q-32 -24 -72 -46.5t-97 -47.5t-129 -40t-146 -15q-254 0 -402 240q-78 -115 -192.5 -175.5t-260.5 -60.5q-77 0 -144 36.5t-109 108t-42 161.5zM245 292 q0 -83 48.5 -132.5t125.5 -49.5q118 0 210 68t121 172q-2 18 -5.5 55t-6 66.5t-2.5 53.5q-101 -7 -217 -24q-54 -8 -101 -23t-87 -39.5t-63 -62t-23 -84.5zM894 606l611 57q-19 82 -58 144.5t-101.5 101t-140.5 38.5q-125 0 -210 -95.5t-101 -245.5z" />
<glyph unicode="&#xe7;" horiz-adv-x="995" d="M84 515q0 159 66 288t184 203.5t265 74.5q174 0 316 -84l-26 -153q-78 44 -141.5 67.5t-139.5 23.5q-102 0 -183 -53t-126 -147.5t-45 -212.5q0 -66 17 -126t49.5 -109.5t76.5 -86t101.5 -56.5t121.5 -20q87 0 150 23t145 73l22 -156q-138 -87 -304 -93l-41 -88 q68 -8 125.5 -56t57.5 -117q0 -59 -35 -100.5t-89.5 -60t-122.5 -18.5q-80 0 -162 40l20 77q24 -13 67 -22.5t77 -9.5q32 0 57.5 7.5t45 29t19.5 55.5q0 91 -190 116l70 153q-130 17 -233 94t-159 193.5t-56 250.5z" />
<glyph unicode="&#xe8;" horiz-adv-x="1125" d="M84 515q0 158 62.5 287t173 203t247.5 74q199 0 332 -142.5t158 -399.5l-801 -73q15 -152 112 -252t243 -100q185 0 374 137l60 -127q-28 -22 -69.5 -45t-99.5 -48t-132.5 -40.5t-149.5 -15.5q-109 0 -204.5 43.5t-162 117.5t-105 173t-38.5 208zM259 606l610 57 q-30 126 -107.5 205t-191.5 79q-127 0 -212 -95.5t-99 -245.5zM288 1562l160 41l245 -338l-89 -28z" />
<glyph unicode="&#xe9;" horiz-adv-x="1125" d="M84 515q0 158 62.5 287t173 203t247.5 74q199 0 332 -142.5t158 -399.5l-801 -73q15 -152 112 -252t243 -100q185 0 374 137l60 -127q-28 -22 -69.5 -45t-99.5 -48t-132.5 -40.5t-149.5 -15.5q-109 0 -204.5 43.5t-162 117.5t-105 173t-38.5 208zM259 606l610 57 q-30 126 -107.5 205t-191.5 79q-127 0 -212 -95.5t-99 -245.5zM407 1265l242 338l165 -41l-316 -325z" />
<glyph unicode="&#xea;" horiz-adv-x="1125" d="M84 515q0 158 62.5 287t173 203t247.5 74q199 0 332 -142.5t158 -399.5l-801 -73q15 -152 112 -252t243 -100q185 0 374 137l60 -127q-28 -22 -69.5 -45t-99.5 -48t-132.5 -40.5t-149.5 -15.5q-109 0 -204.5 43.5t-162 117.5t-105 173t-38.5 208zM218 1282l285 278h128 l277 -278l-108 -45l-233 222l-236 -222zM259 606l610 57q-30 126 -107.5 205t-191.5 79q-127 0 -212 -95.5t-99 -245.5z" />
<glyph unicode="&#xeb;" horiz-adv-x="1125" d="M84 515q0 158 62.5 287t173 203t247.5 74q199 0 332 -142.5t158 -399.5l-801 -73q15 -152 112 -252t243 -100q185 0 374 137l60 -127q-28 -22 -69.5 -45t-99.5 -48t-132.5 -40.5t-149.5 -15.5q-109 0 -204.5 43.5t-162 117.5t-105 173t-38.5 208zM238 1363q0 40 29.5 69 t70.5 29q43 0 73 -29t30 -69q0 -43 -30 -73t-73 -30q-41 0 -70.5 30t-29.5 73zM259 606l610 57q-30 126 -107.5 205t-191.5 79q-127 0 -212 -95.5t-99 -245.5zM686 1363q0 40 28.5 69t69.5 29q43 0 73 -29t30 -69q0 -43 -30 -73t-73 -30q-27 0 -49.5 13.5t-35.5 37.5t-13 52 z" />
<glyph unicode="&#xec;" horiz-adv-x="457" d="M-46 1562l161 41l244 -338l-89 -28zM146 0v1049h165v-1049h-165z" />
<glyph unicode="&#xed;" horiz-adv-x="457" d="M98 1265l242 338l165 -41l-315 -325zM146 0v1049h165v-1049h-165z" />
<glyph unicode="&#xee;" horiz-adv-x="457" d="M-115 1282l285 278h127l279 -278l-109 -45l-232 222l-237 -222zM146 0v1049h165v-1049h-165z" />
<glyph unicode="&#xef;" horiz-adv-x="457" d="M-96 1363q0 40 30 69t71 29q42 0 72.5 -29t30.5 -69q0 -43 -30 -73t-73 -30q-42 0 -71.5 30t-29.5 73zM146 0v1049h165v-1049h-165zM352 1363q0 40 29 69t69 29q43 0 73 -29t30 -69q0 -43 -30 -73t-73 -30q-41 0 -69.5 30t-28.5 73z" />
<glyph unicode="&#xf0;" horiz-adv-x="1200" d="M84 522q0 112 40 214.5t107.5 178.5t164 121t203.5 45q109 0 220 -58h2q-37 74 -95 150.5t-125 141.5l-151 -170l-91 85l149 167q-100 81 -182 137l103 110q93 -51 186 -123l140 161l96 -81l-144 -161q87 -82 160 -177.5t129.5 -204t88 -231t31.5 -244.5q0 -131 -40 -245 t-108.5 -193.5t-164.5 -125.5t-204 -46q-87 0 -166.5 28t-142.5 78.5t-109.5 118.5t-71.5 151t-25 173zM256 510q0 -78 24.5 -149t69 -125.5t112.5 -86.5t149 -32q97 0 174.5 58t119.5 156t42 218q0 188 -34 272q-150 116 -314 116q-99 0 -178.5 -58.5t-122 -156 t-42.5 -212.5z" />
<glyph unicode="&#xf1;" horiz-adv-x="1194" d="M144 0v1049h165v-155h2q32 24 43 32t47.5 33.5t57 37t58 31t66.5 29t65.5 17t69.5 7.5q154 0 242.5 -96t88.5 -274v-711h-167v683q0 128 -51.5 186.5t-157.5 58.5q-136 0 -362 -180v-748h-167zM281 1265q3 85 50.5 145.5t123.5 60.5q37 0 77 -14t69.5 -30.5t65.5 -30 t67 -13.5q37 0 59.5 24.5t27.5 63.5l92 -10q-4 -84 -47.5 -140t-124.5 -56q-37 0 -77.5 14.5t-70.5 32t-65 32t-61 14.5q-40 0 -66.5 -31.5t-34.5 -73.5z" />
<glyph unicode="&#xf2;" horiz-adv-x="1200" d="M84 522q0 112 40 214.5t107.5 178.5t164 121t203.5 45t203.5 -45t165 -120.5t108.5 -177t40 -210.5q0 -111 -40 -213t-108.5 -177t-165 -120t-203.5 -45q-87 0 -166.5 28t-142.5 78.5t-109.5 118.5t-71.5 151t-25 173zM256 525q0 -56 12.5 -109t34.5 -98t53.5 -82.5 t69.5 -63.5t83.5 -40.5t94.5 -14.5q95 0 174 56t124 150.5t45 204.5q0 83 -27.5 158.5t-73.5 130.5t-110.5 87.5t-136.5 32.5q-97 0 -176 -55t-123 -149.5t-44 -207.5zM326 1562l161 41l244 -338l-89 -28z" />
<glyph unicode="&#xf3;" horiz-adv-x="1200" d="M84 522q0 112 40 214.5t107.5 178.5t164 121t203.5 45t203.5 -45t165 -120.5t108.5 -177t40 -210.5q0 -111 -40 -213t-108.5 -177t-165 -120t-203.5 -45q-87 0 -166.5 28t-142.5 78.5t-109.5 118.5t-71.5 151t-25 173zM256 525q0 -56 12.5 -109t34.5 -98t53.5 -82.5 t69.5 -63.5t83.5 -40.5t94.5 -14.5q95 0 174 56t124 150.5t45 204.5q0 83 -27.5 158.5t-73.5 130.5t-110.5 87.5t-136.5 32.5q-97 0 -176 -55t-123 -149.5t-44 -207.5zM467 1265l242 338l166 -41l-317 -325z" />
<glyph unicode="&#xf4;" horiz-adv-x="1200" d="M84 522q0 112 40 214.5t107.5 178.5t164 121t203.5 45t203.5 -45t165 -120.5t108.5 -177t40 -210.5q0 -111 -40 -213t-108.5 -177t-165 -120t-203.5 -45q-87 0 -166.5 28t-142.5 78.5t-109.5 118.5t-71.5 151t-25 173zM254 1282l285 278h127l278 -278l-107 -45l-233 222 l-238 -222zM256 525q0 -56 12.5 -109t34.5 -98t53.5 -82.5t69.5 -63.5t83.5 -40.5t94.5 -14.5q95 0 174 56t124 150.5t45 204.5q0 83 -27.5 158.5t-73.5 130.5t-110.5 87.5t-136.5 32.5q-97 0 -176 -55t-123 -149.5t-44 -207.5z" />
<glyph unicode="&#xf5;" horiz-adv-x="1200" d="M84 522q0 112 40 214.5t107.5 178.5t164 121t203.5 45t203.5 -45t165 -120.5t108.5 -177t40 -210.5q0 -111 -40 -213t-108.5 -177t-165 -120t-203.5 -45q-87 0 -166.5 28t-142.5 78.5t-109.5 118.5t-71.5 151t-25 173zM256 525q0 -56 12.5 -109t34.5 -98t53.5 -82.5 t69.5 -63.5t83.5 -40.5t94.5 -14.5q95 0 174 56t124 150.5t45 204.5q0 83 -27.5 158.5t-73.5 130.5t-110.5 87.5t-136.5 32.5q-97 0 -176 -55t-123 -149.5t-44 -207.5zM283 1265q4 85 51.5 145.5t122.5 60.5q37 0 77.5 -14t69.5 -30.5t65.5 -30t66.5 -13.5q38 0 60.5 24.5 t28.5 63.5l90 -10q-4 -84 -47.5 -140t-124.5 -56q-36 0 -77 14.5t-70.5 32t-65 32t-61.5 14.5q-40 0 -66.5 -31.5t-33.5 -73.5z" />
<glyph unicode="&#xf6;" horiz-adv-x="1200" d="M84 522q0 112 40 214.5t107.5 178.5t164 121t203.5 45t203.5 -45t165 -120.5t108.5 -177t40 -210.5q0 -111 -40 -213t-108.5 -177t-165 -120t-203.5 -45q-87 0 -166.5 28t-142.5 78.5t-109.5 118.5t-71.5 151t-25 173zM256 525q0 -56 12.5 -109t34.5 -98t53.5 -82.5 t69.5 -63.5t83.5 -40.5t94.5 -14.5q95 0 174 56t124 150.5t45 204.5q0 83 -27.5 158.5t-73.5 130.5t-110.5 87.5t-136.5 32.5q-97 0 -176 -55t-123 -149.5t-44 -207.5zM276 1363q0 40 30 69t71 29q42 0 72.5 -29t30.5 -69q0 -43 -30 -73t-73 -30q-27 0 -50.5 13.5t-37 37.5 t-13.5 52zM723 1363q0 26 13 48.5t35.5 36t49.5 13.5q43 0 73.5 -29t30.5 -69q0 -43 -30.5 -73t-73.5 -30q-27 0 -49.5 13.5t-35.5 37.5t-13 52z" />
<glyph unicode="&#xf7;" d="M132 544v139h980v-139h-980zM501 187q0 47 35.5 83.5t83.5 36.5q34 0 63 -17t45.5 -44.5t16.5 -58.5q0 -52 -36.5 -88.5t-88.5 -36.5q-48 0 -83.5 37t-35.5 88zM501 1045q0 47 35.5 83t83.5 36q51 0 88 -36t37 -83q0 -52 -36.5 -88.5t-88.5 -36.5q-48 0 -83.5 36.5 t-35.5 88.5z" />
<glyph unicode="&#xf8;" horiz-adv-x="1200" d="M34 -21l167 191q-55 72 -86 162.5t-31 189.5q0 112 40 214.5t107.5 178.5t164 121t203.5 45q175 0 316 -113l164 182l83 -74l-170 -191q59 -74 91.5 -166t32.5 -191q0 -111 -40 -213t-108.5 -177t-165 -120t-203.5 -45q-178 0 -316 114l-166 -185zM256 525 q0 -131 60 -230l494 558q-96 84 -211 84q-97 0 -176 -55t-123 -149.5t-44 -207.5zM386 204q94 -87 218 -87q95 0 174 56t124 150.5t45 204.5q0 135 -67 234z" />
<glyph unicode="&#xf9;" horiz-adv-x="1178" d="M144 336v713h163v-676q0 -140 52.5 -198t165.5 -58q44 0 93.5 17.5t98.5 48.5t81.5 55.5t70.5 56.5v754h164v-1049h-158v146h-3q-5 -4 -16 -12q-38 -28 -60 -44t-66 -43t-78.5 -42t-81 -27t-90.5 -12q-155 0 -245.5 97.5t-90.5 272.5zM314 1562l161 41l243 -338l-87 -28z " />
<glyph unicode="&#xfa;" horiz-adv-x="1178" d="M144 336v713h163v-676q0 -140 52.5 -198t165.5 -58q44 0 93.5 17.5t98.5 48.5t81.5 55.5t70.5 56.5v754h164v-1049h-158v146h-3q-5 -4 -16 -12q-38 -28 -60 -44t-66 -43t-78.5 -42t-81 -27t-90.5 -12q-155 0 -245.5 97.5t-90.5 272.5zM457 1265l243 338l165 -41 l-316 -325z" />
<glyph unicode="&#xfb;" horiz-adv-x="1178" d="M144 336v713h163v-676q0 -140 52.5 -198t165.5 -58q44 0 93.5 17.5t98.5 48.5t81.5 55.5t70.5 56.5v754h164v-1049h-158v146h-3q-5 -4 -16 -12q-38 -28 -60 -44t-66 -43t-78.5 -42t-81 -27t-90.5 -12q-155 0 -245.5 97.5t-90.5 272.5zM245 1282l285 278h126l279 -278 l-108 -45l-233 222l-237 -222z" />
<glyph unicode="&#xfc;" horiz-adv-x="1178" d="M144 336v713h163v-676q0 -140 52.5 -198t165.5 -58q44 0 93.5 17.5t98.5 48.5t81.5 55.5t70.5 56.5v754h164v-1049h-158v146h-3q-5 -4 -16 -12q-38 -28 -60 -44t-66 -43t-78.5 -42t-81 -27t-90.5 -12q-155 0 -245.5 97.5t-90.5 272.5zM263 1363q0 40 30 69t71 29 q42 0 72.5 -29t30.5 -69q0 -43 -30 -73t-73 -30q-27 0 -50.5 13.5t-37 37.5t-13.5 52zM711 1363q0 40 29 69t70 29q28 0 51.5 -13.5t37.5 -36t14 -48.5q0 -43 -30 -73t-73 -30q-42 0 -70.5 30t-28.5 73z" />
<glyph unicode="&#xfd;" horiz-adv-x="1045" d="M-12 -391q33 -4 76 -4q83 0 143.5 30.5t103 91t77.5 158.5l53 138l-434 1022l176 19l345 -842h4l346 842l157 -19l-525 -1251q-79 -185 -178 -260.5t-250 -75.5q-45 0 -94 7v144zM391 1265l242 338l165 -41l-316 -325z" />
<glyph unicode="&#xfe;" horiz-adv-x="1185" d="M144 -542v2184h167v-679h3q183 116 331 116q94 0 179 -42.5t146 -113.5t96.5 -167t35.5 -200q0 -99 -25.5 -188.5t-72.5 -161t-110.5 -124t-142.5 -81t-166 -28.5q-23 0 -60 8q-104 14 -211 65h-3v-588h-167zM311 194q125 -77 265 -77q98 0 180 58t128 156t46 213 q0 77 -23 147.5t-63 124t-99.5 85t-129.5 31.5q-128 0 -304 -111v-627z" />
<glyph unicode="&#xff;" horiz-adv-x="1045" d="M-12 -391q33 -4 76 -4q83 0 143.5 30.5t103 91t77.5 158.5l53 138l-434 1022l176 19l345 -842h4l346 842l157 -19l-525 -1251q-79 -185 -178 -260.5t-250 -75.5q-45 0 -94 7v144zM199 1363q0 26 13.5 48.5t37 36t50.5 13.5q28 0 51.5 -13.5t37 -36t13.5 -48.5 q0 -43 -29.5 -73t-72.5 -30q-28 0 -51 13.5t-36.5 37.5t-13.5 52zM647 1363q0 40 28.5 69t69.5 29q43 0 73 -29t30 -69q0 -43 -30 -73t-73 -30q-41 0 -69.5 30t-28.5 73z" />
<glyph unicode="&#x152;" horiz-adv-x="2177" d="M108 777q0 174 52 325.5t142.5 259t219 168.5t276.5 61q129 0 233.5 -52.5t178.5 -143.5v158h843v-144h-665v-529h567v-144h-567v-592h716v-144h-894v165q-71 -91 -179 -145t-233 -54q-127 0 -237 40.5t-192.5 114.5t-141.5 174.5t-89 223t-30 258.5zM297 777 q0 -96 17.5 -188t57.5 -177.5t97.5 -149t143.5 -102t190 -38.5q101 0 180.5 42t134 123.5t80.5 199.5v584q-22 158 -135 261.5t-272 103.5q-82 0 -153 -25.5t-124.5 -71.5t-95 -107.5t-68 -135.5t-40 -154.5t-13.5 -164.5z" />
<glyph unicode="&#x153;" horiz-adv-x="1983" d="M84 522q0 112 40 214.5t107.5 178.5t164 121t203.5 45q135 0 246 -68.5t178 -185.5q41 79 100.5 135t136.5 86.5t166 30.5q97 0 180.5 -36t147.5 -103.5t106 -170.5t54 -232l-800 -73q14 -153 110.5 -252.5t243.5 -99.5q186 0 375 137l59 -127q-29 -23 -70 -45.5 t-99.5 -47.5t-133 -40.5t-149.5 -15.5q-94 0 -176 32t-143.5 88t-104.5 133q-68 -117 -180 -185t-247 -68q-87 0 -166.5 28t-142.5 78.5t-109.5 118.5t-71.5 151t-25 173zM256 525q0 -56 12.5 -109t34.5 -98t53.5 -82.5t69.5 -63.5t83.5 -40.5t94.5 -14.5q95 0 174 56 t124 150.5t45 204.5q0 83 -27.5 158.5t-73.5 130.5t-110.5 87.5t-136.5 32.5q-97 0 -176 -55t-123 -149.5t-44 -207.5zM1116 606l612 57q-20 82 -59 144.5t-101.5 101t-138.5 38.5q-128 0 -213.5 -95.5t-99.5 -245.5z" />
<glyph unicode="&#x178;" horiz-adv-x="1308" d="M16 1543l204 19l436 -762h3l445 764l185 -21l-548 -910v-633h-181v633zM329 1802q0 39 29.5 68.5t70.5 29.5q28 0 52 -13.5t37.5 -36t13.5 -48.5q0 -43 -30 -73t-73 -30q-27 0 -50 13.5t-36.5 37.5t-13.5 52zM777 1802q0 40 28.5 69t69.5 29q43 0 73 -29t30 -69 q0 -43 -30 -73t-73 -30q-41 0 -69.5 30t-28.5 73z" />
<glyph unicode="&#x2c6;" horiz-adv-x="828" d="M69 1282l286 278h127l277 -278l-107 -45l-233 222l-236 -222z" />
<glyph unicode="&#x2dc;" horiz-adv-x="835" d="M103 1265q4 85 52 145.5t123 60.5q37 0 77 -14t69 -30.5t65.5 -30t66.5 -13.5q15 0 28.5 4.5t23.5 12.5t17.5 19t12.5 24t7 28l91 -10q-4 -83 -48 -139.5t-125 -56.5q-36 0 -76.5 14.5t-70.5 32t-65 32t-61 14.5q-40 0 -66.5 -31.5t-33.5 -73.5z" />
<glyph unicode="&#x2000;" horiz-adv-x="1030" />
<glyph unicode="&#x2001;" horiz-adv-x="2060" />
<glyph unicode="&#x2002;" horiz-adv-x="1030" />
<glyph unicode="&#x2003;" horiz-adv-x="2060" />
<glyph unicode="&#x2004;" horiz-adv-x="686" />
<glyph unicode="&#x2005;" horiz-adv-x="515" />
<glyph unicode="&#x2006;" horiz-adv-x="343" />
<glyph unicode="&#x2007;" horiz-adv-x="343" />
<glyph unicode="&#x2008;" horiz-adv-x="257" />
<glyph unicode="&#x2009;" horiz-adv-x="412" />
<glyph unicode="&#x200a;" horiz-adv-x="114" />
<glyph unicode="&#x2010;" horiz-adv-x="746" d="M60 489v149h626v-149h-626z" />
<glyph unicode="&#x2011;" horiz-adv-x="746" d="M60 489v149h626v-149h-626z" />
<glyph unicode="&#x2012;" horiz-adv-x="746" d="M60 489v149h626v-149h-626z" />
<glyph unicode="&#x2013;" horiz-adv-x="1370" d="M87 489v149h1193v-149h-1193z" />
<glyph unicode="&#x2014;" horiz-adv-x="2366" d="M87 489v149h2185v-149h-2185z" />
<glyph unicode="&#x2018;" horiz-adv-x="533" d="M160 1306q0 35 12 69t39 86l110 212l72 -31l-46 -113q-18 -39 -18 -79q0 -19 10 -36.5t22 -30t22 -35t10 -49.5q0 -28 -13.5 -53.5t-41 -42.5t-62.5 -17q-48 0 -82 33.5t-34 86.5z" />
<glyph unicode="&#x2019;" horiz-adv-x="533" d="M139 1186l48 115q17 37 17 77q0 19 -10.5 36.5t-22.5 30t-22 35.5t-10 52q0 42 33 76t84 34q31 0 57.5 -14.5t43 -42.5t16.5 -64q0 -59 -52 -156l-110 -208z" />
<glyph unicode="&#x201a;" horiz-adv-x="533" d="M139 119q0 44 33 79t84 35q48 0 82.5 -34t34.5 -87q0 -35 -12.5 -71.5t-39.5 -86.5l-110 -208l-72 28l48 116q17 40 17 76q0 19 -10.5 37t-22.5 30.5t-22 35.5t-10 50z" />
<glyph unicode="&#x201c;" horiz-adv-x="905" d="M160 1306q0 35 12 69t39 86l110 212l72 -31l-46 -113q-18 -39 -18 -79q0 -19 10 -36.5t22 -30t22 -35t10 -49.5q0 -28 -13.5 -53.5t-41 -42.5t-62.5 -17q-48 0 -82 33.5t-34 86.5zM532 1306q0 35 12 69t39 86l110 212l71 -31l-46 -113q-18 -39 -18 -79q0 -19 10 -36.5 t22 -30t22 -35t10 -49.5q0 -21 -8 -41t-22.5 -36t-37 -26t-49.5 -10q-48 0 -81.5 33.5t-33.5 86.5z" />
<glyph unicode="&#x201d;" horiz-adv-x="905" d="M139 1186l48 115q17 37 17 77q0 19 -10.5 36.5t-22.5 30t-22 35.5t-10 52q0 42 33 76t84 34q31 0 57.5 -14.5t43 -42.5t16.5 -64q0 -59 -52 -156l-110 -208zM510 1186l48 115q18 40 18 77q0 19 -10.5 36.5t-22.5 30t-22.5 35.5t-10.5 52q0 41 33.5 75.5t84.5 34.5 q49 0 83 -33.5t34 -87.5q0 -59 -52 -156l-110 -208z" />
<glyph unicode="&#x201e;" horiz-adv-x="905" d="M139 119q0 44 33 79t84 35q48 0 82.5 -34t34.5 -87q0 -35 -12.5 -71.5t-39.5 -86.5l-110 -208l-72 28l48 116q17 40 17 76q0 19 -10.5 37t-22.5 30.5t-22 35.5t-10 50zM510 119q0 44 33.5 79t84.5 35q48 0 82.5 -34t34.5 -87q0 -24 -6 -49.5t-17 -50t-29 -58.5l-110 -208 l-73 28l48 116q18 42 18 76q0 19 -10.5 37t-22.5 30.5t-22.5 35.5t-10.5 50z" />
<glyph unicode="&#x2022;" horiz-adv-x="679" d="M91 798q0 102 73 174.5t174 72.5q69 0 125.5 -33t89 -90t32.5 -124q0 -103 -71.5 -175t-175.5 -72q-100 0 -173.5 72t-73.5 175z" />
<glyph unicode="&#x2026;" horiz-adv-x="1868" d="M190 112q0 47 35.5 84t83.5 37q25 0 48.5 -10t40 -27t26.5 -39t10 -45q0 -34 -17 -62.5t-45.5 -45t-62.5 -16.5q-49 0 -84 36.5t-35 87.5zM812 112q0 47 36.5 84t83.5 37q51 0 88 -36.5t37 -84.5q0 -34 -16.5 -62.5t-45.5 -45t-63 -16.5q-48 0 -84 36.5t-36 87.5z M1436 112q0 47 35.5 84t83.5 37q25 0 48.5 -10t40 -27t26.5 -39t10 -45q0 -34 -16.5 -62.5t-45.5 -45t-63 -16.5q-49 0 -84 36.5t-35 87.5z" />
<glyph unicode="&#x202f;" horiz-adv-x="412" />
<glyph unicode="&#x2039;" horiz-adv-x="684" d="M108 522l338 415l126 -72l-280 -343l286 -339l-132 -71z" />
<glyph unicode="&#x203a;" horiz-adv-x="684" d="M108 183l285 339l-281 343l128 72l338 -415l-338 -410z" />
<glyph unicode="&#x205f;" horiz-adv-x="515" />
<glyph unicode="&#x20ac;" d="M-23 519l23 130h158q-7 34 -7 113q0 85 9 146h-183l23 130h185q38 160 123 283t206.5 192t262.5 69q112 0 215.5 -32t178.5 -91l-35 -170q-175 131 -347 131q-145 0 -257 -104t-159 -278h665l-27 -130h-664q-9 -58 -9 -137q0 -83 7 -122h602l-25 -130h-545 q49 -173 163.5 -278.5t264.5 -105.5q72 0 136.5 17.5t115.5 46t105 71.5l34 -172q-163 -125 -410 -125q-109 0 -208 40.5t-176.5 113t-134 173t-84.5 219.5h-206z" />
<glyph unicode="&#x2122;" horiz-adv-x="1822" d="M12 1541v103h709v-103h-297v-818h-120v818h-292zM798 723l34 921h124l242 -478q30 -62 43 -119q22 75 46 119l247 478h124l38 -921h-119l-24 626q-3 32 -3 91l-256 -525h-105l-249 525v-91l-25 -626h-117z" />
<glyph unicode="&#x25fc;" horiz-adv-x="1065" d="M0 0v1066h1066v-1066h-1066z" />
<glyph unicode="&#xfb01;" horiz-adv-x="1173" d="M50 915v134h144v204q0 84 25.5 154.5t68.5 119t100.5 82t121 49t130.5 15.5q181 0 336 -70l-27 -146q-79 36 -145 56.5t-134 20.5q-62 0 -116.5 -17.5t-98 -52.5t-68.5 -92.5t-25 -132.5v-190h664v-1049h-164v915h-500v-915h-168v915h-144z" />
<glyph unicode="&#xfb02;" horiz-adv-x="1173" d="M50 915v134h144v229q0 71 24 135t64 110.5t92 81t109 51.5t114 17q134 0 263 -31h171v-1642h-171v1498q-127 36 -240 36q-65 0 -123.5 -32.5t-96.5 -95.5t-38 -141v-216h319v-134h-319v-915h-168v915h-144z" />
</font>
</defs>
</svg>
